<?xml version="1.0" encoding="UTF-8" standalone="no"?>
<!-- Uploaded to: SVG Repo, www.svgrepo.com, Generator: SVG Repo Mixer Tools -->

<svg
   width="800"
   height="800"
   viewBox="0 0 1024 1024"
   class="icon"
   version="1.1"
   id="svg76"
   sodipodi:docname="airplane-svgrepo-com.svg"
   inkscape:export-filename="airplane-svgrepo-com-2.svg"
   inkscape:export-xdpi="73.841728"
   inkscape:export-ydpi="73.841728"
   xmlns:inkscape="http://www.inkscape.org/namespaces/inkscape"
   xmlns:sodipodi="http://sodipodi.sourceforge.net/DTD/sodipodi-0.dtd"
   xmlns="http://www.w3.org/2000/svg"
   xmlns:svg="http://www.w3.org/2000/svg">
  <defs
     id="defs80" />
  <sodipodi:namedview
     id="namedview78"
     pagecolor="#ffffff"
     bordercolor="#000000"
     borderopacity="0.25"
     inkscape:showpageshadow="2"
     inkscape:pageopacity="0.0"
     inkscape:pagecheckerboard="0"
     inkscape:deskcolor="#d1d1d1"
     showgrid="false" />
  <path
     fill="#ccd6dd"
     d="m 849.01585,101.9737 a 79.023323,70.271327 0 0 0 -22.8125,3.00013 c 0.056,-1.00676 0.1698,-1.98331 0.1698,-3.00013 a 67.905717,60.385019 0 0 0 -133.4226,-15.836213 67.634002,60.143397 0 0 0 -25.0769,-4.29884 67.928366,60.405156 0 1 0 0,120.810313 67.905717,60.385019 0 0 0 65.4942,-44.57901 67.645322,60.153462 0 0 0 25.0769,4.30891 c 4.2456,0 8.3779,-0.39264 12.4083,-1.04703 -0.6566,3.62431 -1.0868,7.3191 -1.0868,11.11455 0,38.91099 35.4925,70.47268 79.2496,70.47268 43.7573,0 79.2498,-31.56169 79.2498,-70.47268 a 79.249753,70.472678 0 0 0 -79.2498,-70.47268 z"
     id="path168-3"
     style="stroke-width:10.6761" />
  <path
     fill="#ccd6dd"
     d="m 318.36978,98.127937 a 79.023323,70.271327 0 0 0 -22.8125,3.000133 c 0.056,-1.00676 0.1698,-1.983313 0.1698,-3.000133 a 67.905717,60.385019 0 0 0 -133.4226,-15.83621 67.634002,60.143397 0 0 0 -25.0769,-4.29884 67.928366,60.405156 0 1 0 0,120.810313 67.905717,60.385019 0 0 0 65.4942,-44.57901 67.645322,60.153462 0 0 0 25.0769,4.30891 c 4.2456,0 8.3779,-0.39264 12.4083,-1.04703 -0.6566,3.62431 -1.0868,7.3191 -1.0868,11.11455 0,38.91099 35.4925,70.47268 79.2496,70.47268 43.7573,0 79.2498,-31.56169 79.2498,-70.47268 a 79.249753,70.472678 0 0 0 -79.2498,-70.472683 z"
     id="path168-3-4"
     style="stroke-width:10.6761" />
  <path
     fill="#ccd6dd"
     d="m 882.03955,702.98579 a 79.023323,70.271327 0 0 0 -22.8125,3.00013 c 0.056,-1.00676 0.1698,-1.98331 0.1698,-3.00013 a 67.905717,60.385019 0 0 0 -133.4226,-15.83621 67.634002,60.143397 0 0 0 -25.0769,-4.29884 67.928361,60.405155 0 1 0 0,120.81031 67.905717,60.385019 0 0 0 65.4942,-44.57901 67.645322,60.153462 0 0 0 25.0769,4.30891 c 4.2456,0 8.3779,-0.39264 12.4083,-1.04703 -0.6566,3.62431 -1.0868,7.3191 -1.0868,11.11455 0,38.91099 35.4925,70.47268 79.2496,70.47268 43.7573,0 79.2498,-31.56169 79.2498,-70.47268 a 79.249753,70.472678 0 0 0 -79.2498,-70.47268 z"
     id="path168-7"
     style="stroke-width:10.6761" />
  <path
     fill="#e1e8ed"
     d="m 927.32525,843.93115 c -5.2872,0 -10.3025,0.85574 -15.1594,2.05377 2.4454,-5.29551 3.8379,-11.07427 3.8379,-17.15506 a 50.946269,45.303865 0 0 0 -50.9462,-45.30386 50.482093,44.891097 0 0 0 -30.5791,9.27219 73.555089,65.408711 0 0 0 -71.3134,-49.54229 73.555089,65.408711 0 0 0 -69.4115,43.8642 90.57114,80.540204 0 1 0 -26.8203,157.4863 h 260.392 c 31.2696,0 56.6069,-22.53112 56.6069,-50.33763 0,-27.8065 -25.3373,-50.33762 -56.6069,-50.33762 z"
     id="path170-9"
     style="stroke-width:10.6761" />
  <g
     id="g315"
     transform="rotate(45.4,584.24262,507.97183)">
    <path
       d="m 453.12,948.032 h 131.264 c 6.4,0 12.48,0.576 18.688,1.344 V 157.952 c 0,-51.072 -38.656,-92.416 -86.336,-92.416 -47.744,0 -86.464,41.344 -86.464,92.416 v 792 c 7.552,-1.216 15.104,-1.92 22.848,-1.92 z"
       fill="#c4e4ef"
       id="path72" />
    <path
       d="m 603.072,313.6 324.8,346.176 v 78.592 l -324.8,-167.744 z m 0,474.56 87.104,90.752 v 92.864 l -87.104,-25.984 z m -172.736,-5.76 -87.04,90.752 v 92.736 l 87.04,-25.92 z m 0,-470.08 -324.8,346.048 v 78.72 l 324.8,-167.808 z m 71.808,637.12 h 30.144 c 1.408,0 2.944,0.128 4.288,0.384 V 760.448 c 0,-12.16 -8.896,-22.08 -19.84,-22.08 -10.944,0 -19.904,9.856 -19.904,22.08 v 189.504 a 28.8,28.8 0 0 1 5.312,-0.512 z"
       fill="#6aa4ca"
       id="path74" />
  </g>
  <path
     fill="#e1e8ed"
     d="m 894.30155,242.91906 c -5.2872,0 -10.3025,0.85574 -15.1594,2.05377 2.4454,-5.29551 3.8379,-11.07427 3.8379,-17.15506 a 50.946269,45.303865 0 0 0 -50.9462,-45.30386 50.482093,44.891097 0 0 0 -30.5791,9.27219 73.555089,65.408711 0 0 0 -71.3134,-49.54229 73.555089,65.408711 0 0 0 -69.4115,43.8642 90.57114,80.540204 0 1 0 -26.8203,157.4863 h 260.392 c 31.2696,0 56.60685,-22.53111 56.60685,-50.33762 0,-27.8065 -25.33725,-50.33763 -56.60685,-50.33763 z"
     id="path170-8"
     style="stroke-width:10.6761" />
  <path
     fill="#ccd6dd"
     d="m 373.06019,723.22374 a 79.023323,70.271327 0 0 0 -22.8125,3.00013 c 0.056,-1.00676 0.1698,-1.98331 0.1698,-3.00013 a 67.905717,60.385019 0 0 0 -133.4226,-15.83621 67.634002,60.143397 0 0 0 -25.0769,-4.29884 67.928361,60.405155 0 1 0 0,120.81031 67.905717,60.385019 0 0 0 65.4942,-44.57901 67.645322,60.153462 0 0 0 25.0769,4.30891 c 4.2456,0 8.3779,-0.39264 12.4083,-1.04703 -0.6566,3.62431 -1.0868,7.3191 -1.0868,11.11455 0,38.91099 35.4925,70.47268 79.2496,70.47268 43.7573,0 79.2498,-31.56169 79.2498,-70.47268 a 79.249753,70.472678 0 0 0 -79.2498,-70.47268 z"
     id="path168"
     style="stroke-width:10.6761" />
  <path
     fill="#e1e8ed"
     d="m 418.34589,864.1691 c -5.2872,0 -10.3025,0.85574 -15.1594,2.05377 2.4454,-5.29551 3.8379,-11.07427 3.8379,-17.15506 a 50.946269,45.303865 0 0 0 -50.9462,-45.30386 50.482093,44.891097 0 0 0 -30.5791,9.27219 73.555089,65.408711 0 0 0 -71.3134,-49.54229 73.555089,65.408711 0 0 0 -69.4115,43.8642 90.57114,80.540204 0 1 0 -26.8203,157.4863 h 260.392 c 31.2696,0 56.6069,-22.53112 56.6069,-50.33763 0,-27.8065 -25.3373,-50.33762 -56.6069,-50.33762 z"
     id="path170"
     style="stroke-width:10.6761" />
  <path
     fill="#e1e8ed"
     d="m 363.65548,239.0733 c -5.2872,0 -10.3025,0.85574 -15.1594,2.05377 2.4454,-5.29551 3.8379,-11.07427 3.8379,-17.15506 a 50.946269,45.303865 0 0 0 -50.9462,-45.30386 50.482093,44.891097 0 0 0 -30.5791,9.27219 73.555089,65.408711 0 0 0 -71.3134,-49.54229 73.555089,65.408711 0 0 0 -69.4115,43.8642 90.57114,80.540204 0 1 0 -26.8203,157.4863 h 260.392 c 31.2696,0 56.6069,-22.53112 56.6069,-50.33762 0,-27.8065 -25.3373,-50.33763 -56.6069,-50.33763 z"
     id="path170-8-8"
     style="stroke-width:10.6761" />
</svg>
