<?xml version="1.0" standalone="no"?>
<!DOCTYPE svg PUBLIC "-//W3C//DTD SVG 20010904//EN"
 "http://www.w3.org/TR/2001/REC-SVG-20010904/DTD/svg10.dtd">
<svg version="1.0" xmlns="http://www.w3.org/2000/svg"
 width="279.000000pt" height="273.000000pt" viewBox="0 0 279.000000 273.000000"
 preserveAspectRatio="xMidYMid meet">
<metadata>
Created by potrace 1.16, written by Peter Selinger 2001-2019
</metadata>
<g transform="translate(0.000000,273.000000) scale(0.100000,-0.100000)"
fill="#000000" stroke="none">
<path d="M1368 2663 c39 -2 105 -2 145 0 39 1 7 3 -73 3 -80 0 -112 -2 -72 -3z"/>
<path d="M1243 2653 c9 -2 25 -2 35 0 9 3 1 5 -18 5 -19 0 -27 -2 -17 -5z"/>
<path d="M1635 2625 c22 -19 43 -35 48 -35 4 0 7 -4 7 -9 0 -5 -9 -7 -20 -4
-11 3 -18 9 -15 13 6 10 -74 25 -82 16 -4 -3 5 -6 20 -6 14 0 29 -5 33 -12 5
-8 2 -9 -10 -5 -10 4 -29 7 -42 7 -14 0 -22 4 -19 10 3 6 1 10 -4 10 -6 0 -11
-4 -11 -10 0 -5 -7 -7 -16 -3 -11 4 -12 8 -4 13 17 11 -116 23 -230 21 -139
-2 -330 -37 -416 -76 -39 -18 -75 -38 -79 -44 -4 -7 -31 -23 -61 -36 -97 -43
-189 -111 -290 -214 -54 -56 -103 -110 -108 -119 -5 -9 -24 -32 -42 -49 -17
-18 -44 -63 -60 -100 -15 -38 -42 -84 -60 -103 -17 -19 -39 -49 -47 -66 -30
-59 -45 -201 -46 -439 -1 -219 0 -234 25 -325 15 -52 26 -104 26 -114 -1 -11
5 -24 13 -30 8 -6 19 -34 25 -63 5 -29 22 -78 38 -110 16 -32 32 -73 35 -91 4
-19 18 -47 32 -63 13 -17 29 -47 35 -68 11 -41 47 -71 131 -108 25 -11 83 -54
130 -95 75 -67 130 -105 114 -78 -3 5 -1 20 6 32 12 22 12 22 -12 7 -22 -15
-26 -14 -74 24 -67 52 -69 64 -5 32 29 -14 49 -22 45 -16 -3 6 -4 11 0 11 10
0 119 -57 140 -74 19 -15 18 -15 -22 -16 -48 0 -63 -14 -32 -30 15 -8 19 -9
15 -1 -5 7 5 11 28 11 35 0 55 -13 36 -25 -5 -3 -10 -13 -10 -22 0 -15 2 -14
18 0 24 22 72 22 116 -1 44 -21 46 -37 4 -28 l-32 6 22 -20 c11 -11 30 -20 40
-20 11 0 39 -7 62 -15 23 -8 64 -15 89 -15 26 0 53 -6 60 -12 14 -15 369 -14
430 1 157 39 263 69 249 70 -24 1 -23 18 0 25 10 4 43 21 73 39 30 18 80 40
111 50 32 10 57 22 55 27 -1 5 13 20 32 34 38 29 35 35 -5 10 -13 -9 -27 -14
-30 -11 -9 9 53 37 69 31 8 -3 21 6 31 20 18 29 36 34 36 11 0 -8 -12 -22 -27
-32 -40 -25 -57 -43 -43 -43 8 0 10 -10 8 -25 -6 -30 3 -32 27 -5 10 11 13 20
7 20 -30 0 -5 32 77 100 99 83 114 106 27 39 -31 -23 -59 -39 -62 -36 -3 3 17
23 45 44 29 21 47 39 41 41 -12 4 19 31 35 31 6 0 1 -6 -9 -14 -18 -13 -18
-15 -3 -15 10 0 20 -7 24 -16 5 -13 10 -9 24 17 9 19 15 38 12 42 -2 4 21 39
52 78 47 58 56 75 50 96 -4 16 0 35 11 52 16 24 16 25 1 12 -15 -12 -17 -10
-17 17 0 17 6 32 15 35 8 4 24 25 36 49 12 24 24 37 27 30 2 -7 -2 -19 -8 -28
-7 -8 -10 -17 -7 -21 4 -3 14 11 22 33 9 21 22 53 30 69 28 62 47 116 43 120
-2 2 -21 -29 -41 -70 -66 -132 -77 -96 -17 59 17 42 30 90 30 106 0 16 7 47
15 67 20 51 64 253 55 253 -4 0 -13 -21 -21 -47 l-13 -48 -7 80 c-4 44 -14 97
-23 117 -19 45 -20 49 -2 42 21 -8 3 82 -33 164 -17 39 -31 81 -31 94 -1 39
-25 83 -46 83 -13 0 -29 19 -52 63 -19 35 -32 66 -29 68 3 3 22 -9 43 -27 l39
-33 -30 33 c-16 19 -43 42 -60 52 -16 10 -63 51 -103 91 -57 56 -72 76 -68 93
4 15 -3 29 -22 46 -28 26 -107 79 -117 79 -4 0 -25 13 -48 28 -65 44 -204 101
-327 136 -31 9 -66 27 -80 41 -15 16 -34 25 -54 25 l-31 -1 40 -34z m20 15 c3
-5 2 -10 -4 -10 -5 0 -13 5 -16 10 -3 6 -2 10 4 10 5 0 13 -4 16 -10z m-245
-49 c0 -5 -10 -12 -22 -14 -13 -2 0 -2 29 1 66 5 146 -6 170 -24 16 -12 15
-13 -16 -7 -54 10 -241 7 -301 -4 -123 -24 -264 -63 -346 -97 -48 -20 -89 -35
-90 -33 -1 1 3 10 10 19 28 38 278 123 451 152 100 17 115 18 115 7z m-350 -9
c0 -6 -171 -67 -219 -77 -21 -4 -31 -4 -27 3 9 14 116 64 156 72 33 7 90 8 90
2z m710 -12 c12 -8 10 -10 -10 -9 -14 0 -34 4 -45 9 -17 7 -16 9 10 9 17 0 37
-4 45 -9z m-17 -27 c18 -12 -53 -20 -87 -11 -16 4 -34 13 -40 19 -8 9 5 10 52
5 35 -3 69 -9 75 -13z m172 -24 c15 -15 -13 -10 -45 6 -17 9 -30 17 -30 20 0
6 63 -16 75 -26z m-915 11 c-8 -5 -22 -9 -30 -9 -10 0 -8 3 5 9 27 12 43 12
25 0z m618 -14 c40 -9 86 -23 101 -31 16 -8 50 -19 75 -25 26 -6 65 -22 88
-36 23 -15 57 -33 77 -41 106 -44 297 -215 378 -337 85 -129 91 -141 117 -199
29 -67 65 -190 68 -232 1 -17 6 -35 10 -42 5 -6 13 -40 18 -75 10 -68 -3 -138
-26 -138 -13 0 -40 -67 -31 -76 4 -5 25 19 55 62 10 16 12 7 10 -56 -3 -61 -8
-81 -26 -104 -26 -34 -28 -46 -7 -46 18 0 16 -13 -21 -130 -19 -60 -38 -93
-95 -165 -40 -49 -62 -81 -50 -70 13 11 39 41 58 68 19 26 38 46 40 43 8 -8
-53 -112 -116 -197 -31 -42 -91 -105 -133 -140 -42 -35 -77 -68 -77 -72 -1
-10 61 32 71 49 4 6 24 24 45 40 l38 28 -39 -44 c-55 -63 -103 -105 -158 -141
-27 -17 -48 -35 -48 -39 0 -4 -15 -13 -32 -21 -18 -7 -46 -23 -63 -34 -16 -12
-61 -32 -100 -45 -38 -12 -95 -31 -125 -40 -170 -56 -351 -67 -463 -29 -43 15
-77 20 -112 16 -38 -4 -70 2 -135 25 -47 16 -94 34 -105 40 -24 14 -156 69
-170 72 -12 2 -63 45 -117 98 -20 20 -53 48 -73 63 -40 31 -46 68 -19 110 30
46 59 29 44 -26 -13 -43 4 -69 61 -93 24 -10 56 -25 71 -32 15 -8 30 -15 33
-14 3 0 17 -13 32 -30 30 -37 83 -65 138 -74 22 -4 52 -9 67 -12 17 -3 28 -1
28 5 0 6 -12 11 -27 11 -16 0 -46 9 -68 19 -22 10 -46 16 -53 13 -17 -5 -64
38 -58 54 4 11 -33 34 -56 34 -20 0 -147 65 -152 78 -3 7 -1 24 4 38 21 55 15
64 -43 64 -40 0 -58 5 -71 19 -16 18 -15 19 31 24 43 4 51 2 82 -25 37 -32
105 -67 132 -68 9 0 24 -9 34 -20 18 -20 17 -20 -13 -20 -18 0 -32 -4 -32 -10
0 -16 -26 -11 -54 11 -14 11 -26 16 -26 11 0 -19 28 -32 100 -47 85 -18 98
-25 47 -25 -21 0 -37 -4 -37 -10 0 -5 10 -10 23 -10 26 0 38 -8 53 -35 6 -11
22 -26 35 -32 109 -56 152 -63 249 -41 45 10 60 21 126 91 41 44 74 85 74 92
0 7 13 39 29 71 16 33 49 107 75 166 l46 107 0 140 c0 87 4 142 10 146 7 4 7
11 2 18 -5 7 -6 42 -1 82 4 39 9 151 10 250 1 178 2 181 37 285 44 129 48 222
14 340 -12 41 -22 83 -22 94 0 37 -54 136 -77 142 -13 3 -23 13 -23 21 0 8 -5
11 -11 7 -6 -4 -51 -6 -99 -5 -138 2 -348 -47 -471 -110 -20 -10 -56 -36 -80
-58 -24 -22 -47 -41 -51 -41 -18 0 -94 -109 -110 -158 -19 -59 -42 -92 -64
-92 -17 0 -15 66 2 81 9 8 10 18 3 35 -5 14 -9 31 -9 39 0 36 229 217 349 275
100 49 257 97 370 114 57 8 106 18 110 22 10 10 199 -3 279 -20z m212 -21 c27
-14 58 -25 69 -25 11 0 23 -5 27 -12 15 -23 -166 28 -193 56 -17 17 53 3 97
-19z m-1013 -12 c-16 -15 -88 -42 -85 -31 2 6 20 17 39 24 39 14 55 17 46 7z
m1300 -69 c61 -35 80 -50 70 -60 -8 -9 -171 75 -207 106 l-35 30 55 -20 c30
-12 82 -37 117 -56z m-137 6 c8 -5 24 -18 35 -30 18 -20 13 -19 -42 9 -35 17
-63 34 -63 36 0 6 49 -5 70 -15z m-1195 -25 c-11 -8 -27 -20 -35 -28 -8 -7
-53 -43 -100 -79 -79 -61 -154 -131 -216 -203 l-26 -30 17 35 c16 30 77 100
156 179 34 34 156 133 183 148 29 16 48 -3 21 -22z m-131 13 c-5 -8 -2 -9 9
-5 24 9 21 -6 -4 -22 -19 -11 -21 -11 -16 3 10 25 1 19 -41 -26 -23 -24 -44
-38 -50 -34 -24 15 -10 34 46 64 65 36 66 36 56 20z m594 -3 c-2 -3 -51 -12
-107 -20 -104 -16 -116 -20 -261 -87 -92 -43 -149 -77 -192 -117 -16 -14 -28
-20 -28 -14 0 11 108 102 162 137 38 24 184 73 268 91 64 13 168 20 158 10z
m152 -16 c0 -7 8 -18 18 -26 16 -14 16 -14 -1 -9 -10 3 -31 6 -45 7 -15 0 -21
3 -14 6 24 9 12 22 -25 26 -31 3 -29 4 15 5 33 1 52 -2 52 -9z m-143 -15 c-3
-3 -12 -4 -19 -1 -8 3 -5 6 6 6 11 1 17 -2 13 -5z m925 -44 c49 -33 77 -60 60
-60 -5 0 -15 7 -22 15 -7 8 -18 15 -24 15 -15 1 -84 59 -70 60 6 0 31 -14 56
-30z m-867 11 c-11 -9 -146 -41 -176 -41 -36 0 -18 18 34 33 57 17 157 23 142
8z m-190 -11 c-3 -5 -23 -10 -44 -10 -25 0 -72 -16 -133 -45 -53 -25 -98 -45
-102 -45 -15 0 -3 17 27 38 55 37 269 90 252 62z m339 -6 c13 -34 16 -33 -162
-48 -36 -4 -61 -2 -57 3 6 10 136 35 173 34 12 -1 22 5 22 13 0 19 16 18 24
-2z m-924 -11 c-1 -5 -15 -17 -33 -28 -17 -11 -38 -33 -45 -48 -15 -31 -142
-170 -149 -163 -12 12 45 92 119 164 74 73 109 97 108 75z m1662 -36 c28 -19
60 -53 80 -85 18 -30 52 -75 74 -101 50 -55 145 -250 150 -306 l4 -40 -14 40
c-23 66 -74 167 -106 210 -17 22 -48 65 -69 95 -21 31 -80 95 -131 143 -76 73
-87 87 -63 81 15 -3 49 -20 75 -37z m-1152 24 c0 -11 -59 -36 -66 -28 -3 3 7
12 23 21 33 18 43 19 43 7z m130 -16 c-28 -16 -70 -20 -54 -6 8 8 36 16 69 19
6 1 -1 -5 -15 -13z m-680 -45 c-32 -40 -40 -47 -40 -32 0 12 62 84 67 78 3 -3
-9 -23 -27 -46z m575 12 c-6 -4 -48 -23 -95 -42 -178 -70 -359 -168 -361 -195
-3 -29 -4 -33 -13 -42 -5 -5 -6 -3 -2 5 4 6 3 12 -2 12 -12 0 -33 -25 -27 -31
5 -5 -189 -189 -200 -189 -11 0 13 35 52 73 21 21 39 42 39 45 7 34 21 51 54
66 28 12 44 29 59 60 12 23 21 49 21 57 0 23 39 79 55 79 8 0 46 20 85 45 39
25 73 45 75 45 16 0 -32 -51 -73 -78 -68 -45 -97 -70 -91 -76 2 -3 25 8 49 25
77 51 253 133 300 140 68 10 85 10 75 1z m415 -30 c41 -151 43 -168 24 -211
-11 -22 -22 -41 -25 -41 -3 0 -11 11 -17 25 -11 24 -16 25 -94 25 -90 0 -128
7 -128 22 0 11 176 5 223 -7 20 -6 27 -4 27 7 0 15 -31 35 -64 40 -11 2 -21 9
-24 17 -3 10 1 12 16 9 27 -7 57 14 49 35 -4 12 -22 16 -82 16 -41 0 -83 5
-93 10 -12 8 2 10 56 11 l72 0 -6 38 c-6 38 -5 39 25 40 27 1 32 -4 41 -36z
m-175 20 c-27 -24 -245 -51 -245 -31 0 12 31 19 58 13 20 -4 23 -3 13 5 -11 7
-4 8 25 5 21 -3 59 -1 84 4 61 13 76 14 65 4z m92 -39 c3 -8 -15 -11 -59 -11
-35 0 -75 -5 -90 -11 -18 -7 -28 -7 -28 -1 0 6 3 10 8 10 4 1 30 7 57 15 57
16 107 15 112 -2z m-188 -7 c-2 -2 -44 -21 -94 -41 -49 -21 -94 -42 -100 -46
-5 -4 -54 -29 -107 -56 -71 -36 -102 -47 -114 -40 -13 8 -9 13 25 34 49 29
274 123 294 123 8 0 28 7 43 15 26 13 64 21 53 11z m-141 -22 c-46 -24 -180
-76 -185 -71 -5 6 107 73 133 80 11 3 33 5 49 5 l30 1 -27 -15z m1318 -61 c-9
-10 -39 13 -53 41 l-15 31 36 -34 c19 -19 34 -36 32 -38z m-1974 24 c-7 -8 -9
-17 -6 -20 4 -3 -16 -40 -44 -81 -27 -41 -46 -76 -42 -78 4 -2 -13 -43 -37
-93 -42 -87 -43 -89 -39 -45 7 63 156 353 174 336 2 -3 0 -12 -6 -19z m807 13
c-9 -5 -43 -16 -75 -25 -32 -8 -68 -18 -79 -21 -44 -11 18 19 75 37 63 20 106
25 79 9z m171 -20 c0 -5 -18 -10 -40 -10 -22 0 -40 5 -40 10 0 6 18 10 40 10
22 0 40 -4 40 -10z m-1050 -64 c-21 -35 -30 -43 -30 -28 0 14 41 74 47 69 3
-3 -5 -22 -17 -41z m865 26 c-22 -20 -225 -81 -225 -68 0 7 54 35 110 57 46
18 132 26 115 11z m1233 -42 c12 -21 22 -47 22 -57 0 -10 13 -32 29 -49 16
-17 32 -45 36 -62 3 -18 10 -32 14 -32 7 0 71 -131 71 -145 0 -3 -4 -5 -8 -5
-5 0 -17 19 -28 43 -10 23 -31 55 -46 72 -15 16 -42 59 -58 95 -17 36 -35 73
-41 82 -12 24 -11 31 4 22 6 -5 0 8 -14 27 -39 52 -41 58 -21 53 9 -3 27 -23
40 -44z m-2164 -7 c-20 -48 -55 -105 -61 -100 -7 8 55 137 66 137 6 0 3 -16
-5 -37z m504 15 c-18 -28 -103 -78 -96 -57 4 12 93 79 105 79 3 0 -1 -10 -9
-22z m-334 -35 c-2 -27 -5 -64 -6 -83 -2 -20 -13 -49 -25 -65 -26 -35 -30 -18
-7 26 28 54 9 53 -26 -1 -49 -76 -49 -44 -1 45 23 41 41 80 41 88 0 11 18 37
26 37 2 0 1 -21 -2 -47z m221 -3 c-3 -5 -16 -15 -28 -21 -22 -12 -22 -12 -3
10 19 21 43 30 31 11z m439 -4 c-56 -25 -82 -28 -44 -7 19 11 44 20 55 20 15
0 12 -3 -11 -13z m-818 -22 c-4 -9 -9 -15 -11 -12 -3 3 -3 13 1 22 4 9 9 15
11 12 3 -3 3 -13 -1 -22z m1138 10 c25 -10 19 -22 -9 -16 -14 2 -25 8 -25 13
0 10 12 11 34 3z m91 -41 c-8 -62 -24 -111 -37 -119 -11 -7 -6 28 18 114 18
65 27 67 19 5z m-740 21 c-11 -9 -69 -52 -130 -97 -60 -45 -129 -107 -154
-137 -72 -90 -102 -122 -108 -117 -10 10 59 125 90 151 18 14 60 49 95 77 35
28 66 57 69 65 3 8 11 14 18 14 7 0 19 7 26 17 17 20 67 42 94 42 l20 0 -20
-15z m80 6 c-3 -5 -27 -22 -53 -37 -55 -31 -93 -59 -93 -67 1 -3 -1 -6 -4 -6
-3 0 -11 0 -17 0 -18 1 47 55 107 90 52 31 71 37 60 20z m89 -9 c5 -8 -21 -19
-114 -49 -19 -6 22 25 58 44 31 16 49 18 56 5z m-564 -5 c0 -3 -9 -20 -20 -38
-11 -19 -31 -70 -45 -113 -15 -44 -31 -84 -37 -90 -15 -15 0 47 26 109 13 28
31 70 41 94 10 23 22 42 27 42 4 0 8 -2 8 -4z m248 -16 c-7 -11 -17 -20 -22
-20 -5 0 -1 9 9 20 10 11 20 20 22 20 2 0 -2 -9 -9 -20z m652 10 c0 -5 -12
-10 -27 -10 -22 0 -25 2 -13 10 20 13 40 13 40 0z m-173 -6 c-3 -3 -12 -4 -19
-1 -8 3 -5 6 6 6 11 1 17 -2 13 -5z m332 0 c32 -7 42 -30 16 -40 -8 -3 -24 1
-37 10 -12 9 -43 16 -68 16 -33 0 -41 3 -30 10 17 11 73 13 119 4z m-514 -31
c-27 -14 -68 -40 -90 -58 -22 -18 -45 -34 -50 -36 -32 -12 -114 -77 -140 -110
-16 -21 -33 -38 -38 -39 -14 0 26 54 82 113 51 53 139 106 251 150 39 15 30 3
-15 -20z m172 -9 c-27 -14 -51 -23 -54 -20 -7 6 68 45 87 45 8 0 -7 -11 -33
-25z m88 16 c-27 -12 -43 -12 -25 0 8 5 22 9 30 9 10 0 8 -3 -5 -9z m-129 -7
c-8 -14 -89 -51 -146 -67 -30 -9 -62 -21 -70 -26 -18 -11 -3 -12 25 -1 12 5
25 3 33 -6 8 -8 13 -15 11 -17 -2 -1 -38 -28 -79 -58 -85 -63 -99 -77 -128
-133 -24 -45 -30 -23 -8 28 15 36 62 81 142 134 30 20 52 38 50 41 -3 2 -35
-16 -71 -42 -36 -25 -68 -46 -70 -46 -13 0 20 49 45 65 16 11 27 22 24 26 -8
14 69 64 135 86 66 22 116 30 107 16z m332 -3 c10 0 12 -3 7 -9 -14 -13 -84
-21 -91 -10 -11 18 9 31 38 25 17 -3 38 -6 46 -6z m-788 -31 c-59 -51 -94 -75
-84 -56 9 15 103 87 114 87 3 -1 -11 -14 -30 -31z m680 17 c0 -16 -22 -22
-115 -32 -71 -7 -66 6 10 29 65 20 105 21 105 3z m-1084 -72 c-8 -38 -23 -89
-35 -114 l-20 -45 5 51 c4 31 2 54 -4 58 -12 7 -16 -4 -33 -92 -15 -82 -34
-95 -24 -17 10 84 32 151 60 182 l25 28 -5 -55 -5 -55 15 58 c8 33 18 63 21
69 14 22 14 -4 0 -68z m364 73 c0 -12 -121 -129 -127 -123 -4 3 22 33 57 66
62 57 70 64 70 57z m246 -12 c-11 -8 -25 -15 -30 -15 -6 0 -2 7 8 15 11 8 25
15 30 15 6 0 2 -7 -8 -15z m660 -22 c-3 -16 -8 -53 -11 -83 -3 -30 -11 -68
-17 -83 -10 -25 -12 -26 -27 -13 -9 9 -41 21 -71 28 l-55 12 60 11 c52 10 56
12 30 17 -34 7 -150 -25 -180 -50 -27 -23 -66 -44 -71 -39 -11 11 85 71 134
84 32 7 67 19 79 25 17 8 26 8 37 -1 9 -8 16 -8 20 -2 4 5 -2 14 -11 20 -15 8
-15 10 -2 11 8 0 20 -5 27 -12 6 -6 14 -9 18 -5 10 10 -6 27 -27 27 -20 0 -26
15 -9 25 6 3 10 15 10 25 0 20 13 28 48 29 20 1 23 -3 18 -26z m-437 -7 c-10
-9 -69 -36 -69 -32 0 7 52 35 64 36 5 0 7 -2 5 -4z m76 -16 c-3 -5 -12 -10
-20 -10 -18 0 -128 -41 -123 -46 2 -2 28 5 56 16 29 11 60 20 70 19 9 0 -12
-12 -47 -25 -35 -14 -71 -22 -79 -19 -25 10 6 34 72 54 72 23 79 24 71 11z
m-484 -18 c-10 -19 -126 -132 -135 -132 -14 0 -2 16 61 81 65 67 93 87 74 51z
m-275 -39 c-14 -20 -26 -33 -26 -28 0 16 40 78 46 72 3 -3 -6 -23 -20 -44z
m894 27 c0 -5 -7 -10 -14 -10 -8 0 -34 -10 -58 -23 -24 -12 -65 -33 -93 -45
-27 -12 -61 -30 -75 -39 -22 -15 -22 -13 5 16 42 46 78 70 138 91 58 21 97 25
97 10z m-620 -45 c-24 -25 -46 -45 -47 -45 -10 0 21 41 48 64 48 41 48 31 -1
-19z m75 -45 c-22 -22 -44 -40 -49 -40 -6 0 10 20 34 45 24 24 46 42 49 40 2
-3 -13 -23 -34 -45z m-478 -55 c-13 -39 -26 -63 -29 -55 -6 19 35 141 44 132
5 -5 -3 -39 -15 -77z m697 60 c-23 -17 -34 -19 -34 -5 0 11 42 31 49 24 3 -2
-4 -11 -15 -19z m1655 -40 c12 -31 21 -76 21 -102 0 -50 -19 -125 -30 -118 -4
2 -8 41 -9 86 -1 45 -6 105 -12 132 -11 60 -11 57 0 57 5 0 19 -25 30 -55z
m-1629 -20 c-23 -30 -44 -55 -46 -55 -2 0 -4 10 -4 21 0 22 76 106 87 96 3 -4
-13 -31 -37 -62z m180 15 c-30 -26 -67 -50 -82 -52 -16 -3 -28 -3 -28 -1 0 17
135 104 160 103 3 -1 -20 -23 -50 -50z m-559 -8 c-23 -27 -41 -52 -41 -58 0
-5 16 9 35 31 l34 40 -29 -85 c-30 -91 -63 -221 -56 -227 2 -2 12 18 21 46 21
64 41 80 30 25 -4 -21 -13 -70 -19 -109 l-12 -70 -12 34 c-7 19 -17 76 -23
125 -10 81 -10 95 6 131 10 22 19 50 20 62 0 13 19 41 40 63 53 54 55 50 6 -8z
m283 31 c5 -11 -6 -30 -34 -58 -41 -41 -57 -73 -20 -40 29 26 25 12 -17 -63
-39 -69 -59 -70 -25 -1 11 23 18 47 16 53 -3 7 14 33 36 59 23 26 37 47 31 47
-6 0 -15 -9 -22 -21 -8 -15 -14 -18 -22 -10 -7 7 -3 16 14 30 30 25 35 25 43
4z m421 1 c-18 -13 -17 -14 15 -9 31 5 32 4 11 -5 -13 -6 -32 -8 -42 -5 -9 3
-20 1 -24 -5 -3 -5 -12 -10 -18 -10 -7 0 1 12 16 25 15 14 36 25 45 25 15 -1
14 -3 -3 -16z m-926 -55 c-17 -30 -35 -65 -40 -78 -15 -39 -21 -17 -8 27 11
39 67 118 76 109 2 -3 -10 -29 -28 -58z m663 1 c-67 -65 -89 -76 -70 -35 9 21
109 95 127 95 2 0 -24 -27 -57 -60z m-743 -67 c-5 -14 -18 -37 -29 -51 -11
-13 -20 -39 -21 -56 0 -17 -5 -40 -10 -51 -15 -32 -1 78 23 180 l21 90 13 -43
c9 -30 10 -51 3 -69z m415 73 c-9 -15 -19 -25 -21 -22 -3 2 3 16 13 30 9 15
19 25 21 22 3 -2 -3 -16 -13 -30z m-177 17 c-2 -5 -27 -46 -55 -93 -49 -83
-81 -171 -83 -235 -1 -27 -2 -26 -10 10 -19 93 24 219 98 289 34 32 61 47 50
29z m2032 -38 l0 -20 -9 20 c-5 11 -9 27 -9 35 -1 13 0 13 9 0 5 -8 9 -24 9
-35z m-1219 26 c0 -5 -6 -11 -12 -14 -7 -3 -31 -13 -53 -21 l-40 -17 33 31
c30 28 72 41 72 21z m-545 -37 c-14 -20 -32 -61 -42 -90 -9 -30 -20 -54 -25
-54 -23 0 14 114 50 153 36 38 46 34 17 -9z m685 26 c0 -5 -9 -10 -20 -10 -11
0 -20 5 -20 10 0 6 9 10 20 10 11 0 20 -4 20 -10z m-846 -15 c-4 -8 -11 -15
-16 -15 -6 0 -5 6 2 15 7 8 14 15 16 15 2 0 1 -7 -2 -15z m26 -10 c-7 -9 -15
-13 -18 -10 -3 2 1 11 8 20 7 9 15 13 18 10 3 -2 -1 -11 -8 -20z m545 -27
c-28 -29 -51 -55 -52 -57 -2 -2 -6 -2 -9 1 -15 16 66 108 96 108 8 0 -7 -22
-35 -52z m-830 -41 c-20 -61 -25 -99 -25 -180 0 -103 -10 -147 -25 -110 -11
28 -6 253 7 277 23 43 60 98 63 94 2 -2 -7 -39 -20 -81z m985 74 c0 -5 -10
-13 -21 -16 -12 -4 -43 -20 -68 -36 -27 -18 -47 -25 -49 -19 -3 7 -11 5 -23
-6 -10 -9 -19 -12 -19 -7 0 15 28 36 39 29 5 -3 32 10 61 29 51 35 80 44 80
26z m-205 -31 c-10 -11 -20 -18 -23 -15 -3 3 3 14 13 25 10 11 20 18 23 15 3
-3 -3 -14 -13 -25z m312 13 c3 -8 -7 -11 -34 -8 l-38 4 37 -11 c44 -13 45 -17
38 -178 -5 -110 -6 -115 -27 -118 -25 -4 -30 7 -12 25 16 16 4 43 -19 43 -11
0 -31 -10 -46 -21 -41 -32 -54 -10 -17 29 32 35 65 41 80 15 17 -32 23 -6 6
27 -14 27 -15 34 -3 42 10 6 6 14 -17 33 -36 30 -69 32 -112 5 -18 -11 -33
-15 -33 -10 0 5 9 14 21 20 11 7 18 14 15 17 -10 10 -47 -29 -77 -82 -16 -27
-29 -43 -29 -35 0 8 14 38 30 67 27 46 52 67 76 62 5 -1 21 1 37 5 18 6 33 4
42 -4 9 -7 18 -10 22 -7 8 8 -17 67 -28 67 -5 0 -9 4 -9 9 0 21 91 24 97 4z
m-566 -30 c-9 -16 -10 -14 -11 12 0 21 3 26 11 18 8 -8 8 -16 0 -30z m159 7
c-11 -16 -26 -32 -31 -36 -6 -4 -22 -30 -36 -58 l-25 -51 6 53 c3 30 14 65 26
82 18 25 30 32 73 39 5 0 -1 -12 -13 -29z m38 -10 c-9 -27 -28 -50 -28 -35 0
9 30 65 35 65 2 0 -1 -14 -7 -30z m-231 -2 c-3 -8 -6 -5 -6 6 -1 11 2 17 5 13
3 -3 4 -12 1 -19z m507 5 c4 -4 -17 -13 -46 -19 -62 -14 -71 -11 -31 10 30 16
65 20 77 9z m-878 -88 c-8 -46 -14 -64 -19 -52 -4 10 -7 27 -7 38 0 21 28 95
34 88 2 -2 -2 -35 -8 -74z m180 25 c-10 -77 -28 -109 -21 -38 3 31 8 63 11 72
12 31 16 15 10 -34z m267 28 c-12 -13 -33 -41 -47 -62 -29 -43 -35 -33 -10 17
16 32 51 66 68 67 5 0 0 -10 -11 -22z m-351 -13 c-2 -14 -9 -25 -14 -25 -5 0
-7 3 -5 8 2 4 7 15 10 25 9 25 15 21 9 -8z m29 -8 c-10 -9 -11 -8 -5 6 3 10 9
15 12 12 3 -3 0 -11 -7 -18z m425 -20 c-8 -19 -17 -66 -21 -104 -4 -37 -8 -70
-11 -72 -11 -12 -19 16 -19 73 0 52 5 70 28 105 33 50 45 49 23 -2z m178 18
c-3 -8 -21 -23 -40 -34 -19 -11 -34 -27 -34 -35 0 -8 -5 -18 -10 -21 -7 -4 -8
3 -4 22 8 35 45 77 54 63 4 -7 11 -6 20 5 16 19 21 19 14 0z m1442 -41 c6 -48
-10 -26 -20 26 -4 24 -3 31 4 24 6 -6 13 -28 16 -50z m-2402 -12 c-8 -76 13
-273 37 -342 23 -66 23 -70 4 -70 -8 0 -15 -5 -15 -12 0 -9 -3 -9 -11 -1 -19
19 -39 424 -23 466 12 32 15 17 8 -41z m540 -19 c-20 -83 -33 -109 -35 -73 -2
42 2 63 22 109 27 62 33 45 13 -36z m152 -89 c1 -156 0 -164 -15 -137 -20 35
-22 210 -2 266 7 20 14 37 15 37 1 0 2 -75 2 -166z m-506 111 c-22 -96 -23
-198 -2 -277 11 -43 16 -78 12 -78 -9 0 -48 89 -56 128 -8 42 13 207 31 242
21 41 26 35 15 -15z m2196 -38 c4 -40 3 -72 -2 -75 -5 -4 -15 -19 -21 -34 -11
-24 -10 -26 4 -21 13 5 15 2 9 -18 -4 -13 -9 -51 -10 -84 -4 -75 -33 -171 -65
-210 -23 -29 -24 -29 -17 -5 4 14 16 65 26 113 10 49 26 99 34 112 10 16 12
26 5 30 -5 4 -7 16 -3 27 4 14 2 18 -5 14 -17 -11 -14 96 6 170 9 35 20 61 25
56 4 -4 10 -38 14 -75z m-2016 52 c0 -11 -4 -18 -10 -14 -5 3 -7 12 -3 20 7
21 13 19 13 -6z m288 -25 c-19 -68 -14 -182 11 -240 12 -29 21 -65 19 -80 l-4
-29 -13 30 c-21 48 -61 204 -61 236 0 28 47 135 55 127 3 -2 -1 -22 -7 -44z
m163 15 c-9 -22 -10 -22 -10 -3 -1 11 2 24 6 27 12 12 14 0 4 -24z m46 9 c-3
-8 -6 -5 -6 6 -1 11 2 17 5 13 3 -3 4 -12 1 -19z m243 18 c0 -2 -21 -16 -47
-31 -27 -15 -56 -37 -65 -49 -9 -11 -19 -18 -23 -14 -8 8 61 77 89 88 23 9 46
12 46 6z m-1223 -58 c-3 -7 -5 -2 -5 12 0 14 2 19 5 13 2 -7 2 -19 0 -25z
m1253 13 c14 -27 13 -31 -8 -31 -20 0 -82 -28 -82 -37 0 -3 7 -3 15 1 20 7 19
-7 -3 -27 -17 -15 -18 -14 -19 23 -2 32 3 44 28 65 36 30 55 32 69 6z m-658
-91 l-8 -45 -5 42 c-2 23 0 56 5 75 l10 33 3 -30 c2 -16 0 -50 -5 -75z m438
79 c-7 -11 -14 -18 -17 -15 -8 8 5 36 17 36 7 0 7 -6 0 -21z m-61 -82 c0 -51
3 -101 7 -110 4 -12 1 -17 -10 -17 -20 0 -31 40 -31 115 1 51 16 105 30 105 2
0 4 -42 4 -93z m-919 51 c0 -21 -3 -29 -10 -22 -5 5 -7 19 -4 32 9 31 14 27
14 -10z m483 -73 c-2 -95 0 -113 28 -186 16 -45 28 -83 26 -85 -2 -2 -13 6
-24 19 -44 47 -64 183 -47 311 11 79 19 51 17 -59z m-64 14 c6 -46 6 -78 0
-83 -5 -6 -9 -2 -9 11 0 12 -5 25 -12 29 -8 5 -9 2 -5 -10 4 -10 7 -29 7 -43
0 -21 2 -24 15 -13 13 11 15 4 15 -57 0 -38 7 -95 15 -128 20 -73 14 -90 -14
-45 -36 58 -63 164 -57 223 3 29 8 81 11 116 10 108 21 108 34 0z m209 -11
c-5 -58 -4 -113 3 -146 6 -30 8 -56 6 -59 -8 -7 -37 95 -37 129 0 43 22 168
29 168 4 0 3 -42 -1 -92z m452 42 c-5 -25 -14 -58 -20 -75 -9 -23 -13 -26 -20
-15 -17 26 -11 63 16 102 15 21 28 37 30 36 1 -2 -1 -23 -6 -48z m-801 -80
c-1 -69 -3 -87 -9 -66 -8 27 -14 111 -11 166 1 20 3 22 11 10 5 -8 9 -58 9
-110z m701 80 c-8 -28 3 -91 25 -142 10 -25 -12 -23 -25 2 -19 35 -30 118 -20
145 14 36 31 32 20 -5z m-1020 -37 c-1 -21 -13 -52 -20 -48 -10 6 0 55 11 55
5 0 9 -3 9 -7z m1247 -33 c-12 -33 -22 -38 -30 -16 -6 16 21 59 33 51 4 -3 3
-19 -3 -35z m1277 25 c-4 -8 -8 -15 -10 -15 -2 0 -4 7 -4 15 0 8 4 15 10 15 5
0 7 -7 4 -15z m-1825 -113 c1 -20 -3 -31 -9 -27 -5 3 -9 36 -9 73 1 62 2 64
10 27 4 -22 8 -55 8 -73z m442 79 c6 -16 19 -31 30 -34 10 -3 19 -10 19 -16 0
-17 -35 -13 -60 7 -18 14 -22 25 -16 45 8 35 15 34 27 -2z m-1063 -116 l0 -50
-9 40 c-4 22 -8 65 -7 95 l1 55 8 -45 c4 -25 7 -67 7 -95z m307 -9 c3 -39 9
-84 12 -101 9 -49 -13 -17 -35 50 -12 36 -20 88 -20 130 l0 70 18 -39 c10 -22
21 -72 25 -110z m-361 73 c9 -88 8 -139 -4 -139 -18 0 -30 39 -30 97 0 112 23
140 34 42z m590 -34 c1 -41 4 -75 9 -75 4 0 7 9 7 21 0 38 19 9 31 -49 6 -31
22 -76 35 -99 32 -55 30 -63 -6 -28 -58 55 -78 96 -89 178 -15 106 -14 154 1
139 6 -6 12 -44 12 -87z m566 85 c0 -5 -4 -10 -10 -10 -5 0 -10 5 -10 10 0 6
5 10 10 10 6 0 10 -4 10 -10z m-100 -42 c0 -6 -7 -5 -15 2 -8 7 -15 17 -15 22
0 6 7 5 15 -2 8 -7 15 -17 15 -22z m-860 -7 c0 -40 71 -246 110 -319 25 -47
34 -69 21 -57 -21 21 -88 151 -122 237 -24 61 -38 175 -21 164 7 -4 12 -15 12
-25z m1090 9 c0 -22 -19 -34 -67 -43 l-31 -6 35 34 c40 39 63 45 63 15z m-408
-113 c17 -15 28 -30 25 -33 -6 -7 -57 17 -57 28 0 4 -6 8 -13 8 -18 0 -36 34
-43 82 l-6 43 32 -50 c18 -27 46 -63 62 -78z m-9 52 c7 -28 -13 -10 -37 33
l-19 33 25 -23 c15 -13 28 -33 31 -43z m267 15 l35 -13 -32 0 c-39 -1 -83 15
-83 29 0 12 13 9 80 -16z m-970 -13 c0 -15 5 -42 11 -59 6 -17 9 -37 6 -44 -2
-7 -13 16 -25 52 -11 36 -18 68 -15 73 10 17 23 5 23 -22z m750 -14 c0 -5 -7
-4 -15 3 -8 7 -15 20 -15 29 1 13 3 13 15 -3 8 -11 15 -24 15 -29z m-770 -38
c23 -76 21 -104 -3 -47 -16 38 -32 118 -24 118 3 0 15 -32 27 -71z m581 -21
c10 -20 19 -51 19 -68 0 -17 13 -57 29 -89 25 -48 38 -62 77 -80 25 -12 44
-24 41 -27 -6 -6 -81 31 -119 59 -15 11 -30 34 -33 51 -4 17 -18 63 -31 103
-24 72 -35 169 -13 113 6 -14 19 -42 30 -62z m254 47 c22 -40 47 -45 189 -32
49 4 93 4 97 0 15 -15 -3 -63 -25 -68 -70 -14 -98 -16 -91 -6 4 7 -16 11 -62
11 -38 1 -81 7 -98 15 l-30 15 30 -5 c77 -13 241 -4 258 15 10 9 -4 10 -63 4
-143 -14 -216 -1 -243 45 -21 37 -21 41 1 41 11 0 27 -14 37 -35z m295 15 c0
-15 -7 -20 -29 -20 -40 0 -48 16 -14 28 40 15 43 14 43 -8z m-199 -28 c-13 -2
-31 3 -39 12 -14 14 -12 14 24 3 33 -10 35 -13 15 -15z m-748 -62 c18 -47 49
-102 130 -228 40 -63 59 -102 49 -102 -25 0 -94 78 -130 147 -41 80 -92 217
-92 249 0 17 1 17 13 -1 7 -11 21 -40 30 -65z m82 -43 c9 -27 35 -68 56 -93
34 -40 48 -64 35 -64 -2 0 -21 17 -43 38 -43 40 -67 92 -77 162 -7 49 0 39 29
-43z m104 -31 c18 -54 30 -100 28 -102 -18 -18 -77 133 -77 195 0 41 15 12 49
-93z m325 41 c-13 -42 182 -87 287 -65 33 7 59 16 59 20 0 4 9 8 20 8 11 0 20
6 20 14 0 13 28 31 36 23 9 -9 16 -121 10 -161 -7 -48 -11 -52 -35 -37 -13 8
-13 12 0 27 13 16 12 17 -14 10 -55 -13 -143 -18 -132 -7 6 5 29 11 51 12 29
2 49 10 65 27 l24 25 -25 -7 c-24 -7 -24 -6 -6 8 11 9 26 16 33 16 7 0 13 4
13 9 0 11 -44 6 -155 -19 -119 -26 -165 -20 -232 30 -53 41 -91 99 -78 121 10
16 64 -34 59 -54z m-165 5 c1 -7 -3 -10 -9 -7 -5 3 -10 18 -9 33 0 24 1 25 9
7 5 -11 9 -26 9 -33z m281 -2 c70 -27 73 -29 38 -30 -48 0 -115 26 -115 45 0
8 1 15 1 15 1 0 35 -13 76 -30z m-946 -34 c3 -30 8 -60 11 -68 3 -8 -2 -14
-13 -15 -16 -1 -21 7 -26 44 -9 70 -7 93 8 93 9 0 15 -18 20 -54z m47 -17 c23
-76 21 -103 -4 -41 -18 44 -32 112 -23 112 3 0 15 -32 27 -71z m273 -51 c25
-54 42 -98 38 -98 -13 0 -92 149 -107 200 -15 53 24 -5 69 -102z m-95 36 c17
-37 30 -69 28 -71 -2 -2 -20 16 -40 40 -27 33 -34 49 -30 70 3 15 7 27 8 27 2
0 17 -30 34 -66z m636 56 c3 -5 1 -10 -4 -10 -6 0 -11 5 -11 10 0 6 2 10 4 10
3 0 8 -4 11 -10z m210 0 c3 -5 -1 -10 -9 -10 -9 0 -16 5 -16 10 0 6 4 10 9 10
6 0 13 -4 16 -10z m-508 -49 c20 -30 40 -107 30 -117 -15 -15 -38 16 -56 76
-12 37 -21 71 -21 75 0 15 26 -4 47 -34z m261 -12 c41 -37 106 -68 152 -73 41
-5 51 -16 14 -17 l-29 -1 30 -9 c17 -5 53 -13 80 -18 l50 -9 -68 -1 c-37 0
-82 5 -100 13 -30 12 -167 104 -167 111 0 2 -3 10 -6 19 -9 24 5 19 44 -15z
m250 14 c-10 -2 -28 -2 -40 0 -13 2 -5 4 17 4 22 1 32 -1 23 -4z m-971 -25
c-3 -8 -6 -5 -6 6 -1 11 2 17 5 13 3 -3 4 -12 1 -19z m59 -45 c20 -38 54 -102
75 -143 44 -89 60 -107 79 -85 10 12 10 15 -3 15 -17 0 -43 28 -34 36 8 8 87
-48 87 -62 0 -19 -41 -24 -74 -10 -39 16 -94 77 -102 114 -4 15 -10 32 -14 37
-7 10 -60 152 -60 161 0 14 13 -4 46 -63z m547 -35 c24 -37 21 -42 -14 -21
-30 17 -89 95 -89 116 0 14 84 -63 103 -95z m-458 -31 c4 -21 5 -41 2 -43 -6
-6 -87 140 -87 157 0 27 79 -78 85 -114z m905 93 c0 -11 -63 -24 -82 -17 -7 2
7 9 32 15 25 5 46 10 48 11 1 1 2 -3 2 -9z m1209 -49 c-12 -28 -26 -51 -32
-51 -5 0 -16 -8 -23 -17 -8 -11 -13 -13 -14 -5 0 7 9 20 20 29 11 10 20 22 20
27 0 12 43 76 48 71 2 -2 -6 -26 -19 -54z m-2330 -52 c16 -54 8 -60 -13 -9
-18 47 -19 50 -8 50 5 0 14 -18 21 -41z m596 -137 l30 -22 -35 6 c-60 11 -80
23 -98 55 -9 17 -32 53 -49 80 -18 27 -33 52 -33 56 0 5 35 -28 78 -72 42 -44
91 -90 107 -103z m-81 141 c33 -53 51 -67 126 -98 36 -15 71 -32 77 -37 7 -6
19 -8 27 -5 8 3 20 -1 26 -9 22 -25 -73 -18 -128 10 -64 33 -196 176 -162 176
5 0 20 -17 34 -37z m-474 6 c0 -6 -4 -7 -10 -4 -5 3 -10 11 -10 16 0 6 5 7 10
4 6 -3 10 -11 10 -16z m80 -33 c0 -18 -17 8 -24 34 l-7 25 15 -25 c9 -14 15
-29 16 -34z m638 -50 c94 -32 111 -46 53 -46 -29 0 -56 10 -95 35 -64 41 -84
45 -41 9 l30 -26 -33 17 c-21 10 -32 22 -28 30 3 8 -4 17 -17 21 -31 10 -48
30 -41 48 5 13 14 9 48 -22 30 -28 66 -47 124 -66z m-492 57 c33 -52 119 -144
152 -163 17 -11 32 -24 32 -30 0 -8 -58 31 -101 69 -8 7 -28 21 -46 31 -18 11
-39 29 -47 42 -20 31 -31 78 -18 78 5 0 18 -12 28 -27z m311 -5 c40 -39 43
-57 6 -32 -29 18 -52 43 -53 57 0 14 15 6 47 -25z m223 -10 c0 -11 -32 -10
-49 1 -7 5 -11 13 -7 19 7 11 56 -7 56 -20z m1525 -5 c-18 -43 -25 -52 -25
-32 0 8 -20 -24 -45 -70 -39 -74 -131 -188 -143 -176 -2 2 21 35 52 72 31 37
71 96 89 130 17 35 37 63 43 63 7 0 15 11 18 25 4 14 11 25 16 25 6 0 4 -16
-5 -37z m-1127 -2 c-3 -15 -33 -17 -94 -6 -10 2 -32 4 -47 4 -17 1 -26 5 -22
12 4 6 31 9 61 8 29 -2 56 0 59 3 12 12 46 -5 43 -21z m-195 -36 l52 -13 -65
-1 c-82 -1 -190 14 -204 29 -14 15 140 4 217 -15z m1240 -21 c-10 -22 -22 -42
-26 -45 -5 -3 -9 -10 -9 -15 0 -5 -9 -20 -20 -34 -25 -33 -21 -20 25 69 39 75
62 94 30 25z m-2139 0 c22 -48 14 -55 -13 -11 -23 37 -25 47 -13 47 5 0 16
-16 26 -36z m1026 16 c0 -5 -9 -10 -21 -10 -11 0 -17 5 -14 10 3 6 13 10 21
10 8 0 14 -4 14 -10z m20 -83 l-30 -67 -43 1 c-67 1 -93 17 -29 18 51 1 59 6
44 26 -10 14 -29 16 -171 24 -86 4 -126 10 -129 19 -5 15 93 16 178 1 125 -21
140 -22 156 -8 8 7 13 21 10 31 -3 13 2 22 17 27 12 5 23 5 25 2 1 -4 -11 -37
-28 -74z m-1101 31 c11 -24 41 -79 66 -123 45 -80 53 -105 36 -105 -17 0 -40
30 -34 45 3 9 -12 43 -32 78 -32 54 -70 147 -59 147 1 0 12 -19 23 -42z m335
17 c9 -14 13 -25 9 -25 -12 1 -46 50 -35 50 6 0 17 -11 26 -25z m79 -13 c23
-16 74 -45 112 -66 78 -41 111 -63 104 -71 -8 -7 -141 35 -177 57 -29 18 -102
108 -87 108 4 0 25 -13 48 -28z m560 6 c-17 -8 -29 -8 -45 0 -20 9 -18 11 22
11 40 0 42 -2 23 -11z m95 -10 c-5 -15 -68 -24 -68 -9 0 12 18 19 48 20 15 1
22 -4 20 -11z m-937 -125 c39 -56 37 -70 -6 -36 -20 16 -30 30 -24 34 7 4 4
12 -8 20 -19 14 -53 63 -53 76 0 12 61 -50 91 -94z m19 62 c12 -20 37 -46 55
-58 29 -20 31 -25 20 -40 -12 -16 -15 -15 -42 20 -44 56 -76 113 -65 113 6 0
20 -16 32 -35z m471 9 c17 -8 28 -18 26 -21 -6 -5 -107 26 -107 33 0 10 54 3
81 -12z m359 6 c10 -7 -9 -9 -63 -8 -43 0 -80 5 -83 10 -7 11 128 10 146 -2z
m1240 -8 c0 -54 -74 -186 -87 -154 -7 17 -23 15 -23 -3 0 -15 -78 -70 -87 -61
-3 3 23 33 58 68 35 35 78 87 94 115 31 55 45 65 45 35z m-1332 -28 c40 -13
83 -24 97 -24 14 0 25 -4 25 -9 0 -18 -25 -18 -78 0 -29 10 -80 21 -115 24
-66 6 -137 24 -137 35 0 14 140 -3 208 -26z m-504 -13 c11 -12 16 -21 12 -21
-11 0 -66 43 -66 52 0 12 32 -6 54 -31z m375 -17 c18 -8 46 -14 62 -14 15 0
31 -5 34 -10 12 -19 -166 -5 -202 16 -18 11 -33 22 -33 25 0 10 103 -3 139
-17z m66 6 c3 -5 -1 -10 -9 -10 -9 0 -16 5 -16 10 0 6 4 10 9 10 6 0 13 -4 16
-10z m63 -11 c18 -6 30 -15 27 -20 -6 -8 -50 7 -69 23 -14 11 5 10 42 -3z
m133 -74 c-49 -83 -61 -97 -61 -68 0 12 -6 23 -12 26 -7 3 4 12 25 21 20 9 37
21 37 27 0 8 -4 8 -12 2 -7 -6 -35 -8 -63 -6 -27 2 -71 4 -97 4 -26 0 -50 5
-54 11 -4 7 5 8 27 3 25 -4 30 -3 19 4 -11 8 12 11 83 11 80 0 97 3 97 15 0
16 43 38 48 25 1 -4 -15 -37 -37 -75z m-403 45 c91 -23 99 -30 36 -30 -31 0
-68 9 -101 25 -54 25 -71 43 -30 31 12 -4 55 -15 95 -26z m-39 -37 c2 -2 2 -6
-1 -9 -9 -8 -78 23 -78 35 0 8 55 -10 79 -26z m176 -25 c7 -7 -14 -8 -59 -3
-102 10 -125 24 -31 18 44 -3 85 -10 90 -15z m-195 2 c0 -5 -2 -10 -4 -10 -3
0 -8 5 -11 10 -3 6 -1 10 4 10 6 0 11 -4 11 -10z m67 -16 c-3 -3 -12 -4 -19
-1 -8 3 -5 6 6 6 11 1 17 -2 13 -5z m-404 -69 c27 -17 36 -35 17 -35 -14 0
-100 80 -100 93 0 6 12 -1 28 -15 15 -14 39 -33 55 -43z m447 55 c0 -5 -7 -7
-15 -4 -8 4 -15 8 -15 10 0 2 7 4 15 4 8 0 15 -4 15 -10z m145 -10 c3 -5 -3
-10 -14 -10 -10 0 -25 -2 -33 -5 -7 -3 -22 1 -33 9 -19 14 -17 15 27 16 26 0
50 -4 53 -10z m-682 -36 c-3 -8 -1 -14 4 -14 4 0 14 -9 21 -20 18 -29 -4 -25
-33 6 -29 32 -32 46 -7 37 15 -6 16 -5 2 13 -14 17 -14 18 2 6 9 -8 14 -20 11
-28z m809 14 c-2 -7 -9 -16 -15 -20 -13 -9 -70 0 -75 12 -1 4 -15 5 -30 2 -26
-4 -26 -4 -7 11 25 19 132 15 127 -5z m1011 -56 c-34 -31 -80 -65 -104 -74
-23 -10 -39 -15 -36 -11 23 22 184 142 192 142 6 0 -18 -26 -52 -57z m-1263
29 c0 -6 -17 -7 -37 -4 -52 8 -54 13 -5 13 23 0 42 -4 42 -9z m25 -17 c50 -2
109 -6 133 -9 27 -3 41 -1 37 5 -3 6 5 10 19 10 14 0 26 -4 26 -10 0 -5 -5
-10 -10 -10 -6 0 -28 -11 -50 -25 -46 -29 -56 -30 -77 -9 -9 9 -22 12 -32 8
-39 -17 -145 4 -183 37 l-23 20 35 -6 c19 -4 76 -9 125 -11z m-452 -51 c22
-14 37 -27 34 -29 -10 -10 -117 54 -117 70 0 8 27 -6 83 -41z m12 37 c3 -5 1
-10 -4 -10 -6 0 -11 5 -11 10 0 6 2 10 4 10 3 0 8 -4 11 -10z m515 -50 c0 -5
-19 -9 -42 -9 -40 1 -41 2 -13 9 44 11 55 11 55 0z m961 -114 c-13 -16 -111
-60 -117 -53 -4 4 102 63 120 66 5 0 3 -5 -3 -13z m-806 -76 c7 -12 -22 -12
-50 0 -17 7 -15 9 12 9 17 1 35 -3 38 -9z m-5 -36 c0 -2 -9 -4 -20 -4 -11 0
-20 4 -20 9 0 5 9 7 20 4 11 -3 20 -7 20 -9z m599 2 c-2 -2 -18 -7 -34 -10
l-30 -6 30 14 c26 12 46 14 34 2z m-761 -31 c18 -5 21 -10 12 -20 -15 -18 -64
-4 -68 19 -3 13 1 17 15 13 10 -3 28 -8 41 -12z m782 6 c0 -9 -60 -24 -68 -16
-5 5 36 23 56 24 6 1 12 -3 12 -8z m-666 -27 c54 -10 24 -24 -36 -17 -33 4
-48 10 -48 20 0 11 7 14 23 10 12 -3 39 -9 61 -13z m420 -22 c3 -6 -12 -13
-34 -17 -43 -7 -143 3 -136 13 7 11 163 14 170 4z m-254 -22 c20 -6 14 -8 -25
-8 -27 0 -61 4 -75 8 -20 6 -14 8 25 8 28 0 61 -4 75 -8z"/>
<path d="M1780 2197 c0 -10 12 -45 26 -79 17 -40 22 -64 15 -66 -6 -2 -11 -16
-11 -30 l1 -27 13 25 14 25 6 -35 c3 -19 7 -79 9 -132 4 -82 1 -101 -14 -125
-11 -15 -19 -44 -19 -64 0 -19 -5 -40 -12 -47 -9 -9 -9 -12 0 -12 9 0 11 -48
8 -197 -4 -163 -8 -200 -21 -209 -19 -14 -20 -25 0 -18 19 8 19 -4 0 -50 -9
-20 -13 -41 -10 -46 4 -6 -1 -20 -9 -32 -9 -12 -16 -30 -16 -39 0 -9 -9 -28
-21 -43 -17 -21 -18 -26 -5 -26 20 0 21 -34 1 -50 -10 -8 -12 -17 -7 -22 9 -9
0 -51 -25 -130 -2 -9 -15 -19 -26 -22 -17 -5 -19 -8 -9 -15 11 -7 9 -18 -12
-60 -15 -28 -32 -51 -40 -51 -13 0 -46 -31 -46 -43 0 -4 7 -7 15 -7 26 0 17
-15 -41 -70 -31 -29 -48 -50 -39 -46 10 3 62 18 118 32 88 22 177 57 177 69 0
2 -24 -7 -52 -19 -29 -13 -66 -27 -83 -30 -23 -5 -19 0 20 20 28 15 68 41 90
58 56 45 125 88 125 79 0 -5 -11 -17 -25 -27 -14 -10 -25 -23 -25 -27 0 -15
75 33 107 70 17 19 35 32 40 27 12 -12 -80 -91 -140 -120 -33 -16 -43 -24 -27
-22 38 4 130 49 127 61 -1 6 36 51 83 99 47 48 90 97 97 109 23 44 63 138 63
148 0 6 8 28 19 48 93 182 96 318 12 581 -17 52 -31 103 -31 112 0 30 -71 151
-122 208 -94 105 -104 116 -159 160 -30 24 -73 62 -96 84 -32 30 -43 36 -43
23z m114 -105 c46 -34 239 -242 232 -250 -12 -11 -71 36 -111 88 -25 33 -65
73 -89 89 -46 32 -106 95 -106 112 0 12 9 7 74 -39z m22 -94 c66 -65 58 -91
-14 -43 -28 18 -38 33 -40 55 -1 16 0 30 4 30 3 0 25 -19 50 -42z m20 -115
c19 -29 34 -57 34 -60 0 -4 -22 15 -50 42 -33 32 -50 58 -50 73 0 21 2 23 16
11 9 -7 31 -37 50 -66z m61 -15 c33 -34 97 -158 87 -167 -9 -9 -60 59 -99 132
-39 74 -36 84 12 35z m-97 -19 c0 11 3 11 15 1 8 -7 12 -16 9 -22 -3 -5 6 -18
20 -29 25 -20 63 -79 51 -79 -3 0 -16 9 -28 21 -44 42 -66 52 -82 39 -13 -11
-15 -5 -15 41 1 50 2 52 15 35 9 -12 15 -15 15 -7z m200 -14 c25 -16 37 -30
34 -39 -3 -8 8 -38 24 -67 38 -68 58 -128 67 -203 11 -90 -9 -61 -41 61 -25
97 -78 212 -104 228 -12 7 -33 45 -25 45 3 0 23 -11 45 -25z m-164 -122 c11
-16 24 -35 29 -43 8 -13 7 -13 -9 -1 -24 20 -59 71 -49 71 5 0 18 -12 29 -27z
m45 -5 c18 -20 23 -28 16 -28 -2 0 -14 11 -27 25 -13 14 -20 25 -15 25 4 0 16
-10 26 -22z m-62 -29 c23 -23 40 -44 36 -47 -3 -3 -16 6 -28 20 -12 14 -32 31
-44 37 -22 11 -32 31 -15 31 4 0 27 -18 51 -41z m207 6 c19 -46 17 -55 -6 -26
-18 21 -28 61 -14 61 3 0 12 -16 20 -35z m-273 -19 c6 -16 -2 -28 -14 -20 -12
7 -11 34 0 34 5 0 11 -6 14 -14z m232 -60 c17 -40 20 -106 5 -106 -5 0 -10 9
-10 20 0 12 -6 31 -14 43 -8 12 -16 44 -19 70 -4 44 -3 46 10 28 7 -11 20 -36
28 -55z m5 59 c6 -8 10 -21 8 -29 -2 -11 -8 -7 -20 14 -18 31 -10 41 12 15z
m-189 -8 c-1 -12 -15 -9 -19 4 -3 6 1 10 8 8 6 -3 11 -8 11 -12z m-26 -27 c3
-5 1 -10 -4 -10 -6 0 -11 5 -11 10 0 6 2 10 4 10 3 0 8 -4 11 -10z m85 -31
c21 -17 41 -36 43 -43 36 -86 38 -92 20 -67 -19 26 -80 88 -107 109 -18 14
-21 32 -5 32 5 0 28 -14 49 -31z m38 6 c-3 -3 -9 2 -12 12 -6 14 -5 15 5 6 7
-7 10 -15 7 -18z m-131 -17 c-4 -14 6 -30 32 -53 21 -19 42 -51 49 -71 l11
-36 -60 61 c-49 51 -59 67 -59 96 0 27 3 33 16 28 10 -3 14 -13 11 -25z m275
-4 c10 -35 0 -125 -12 -104 -12 24 -18 141 -6 137 5 -2 14 -17 18 -33z m-88
-84 l7 -25 -15 25 c-9 14 -15 32 -15 40 0 13 1 13 8 0 5 -8 12 -26 15 -40z
m137 -37 c10 -42 15 -51 20 -37 6 16 8 16 8 2 1 -9 -2 -23 -5 -32 -5 -14 -8
-14 -21 -1 -18 19 -33 11 -33 -18 0 -12 -4 -28 -9 -36 -6 -9 -10 -3 -14 20 -6
36 22 171 34 163 4 -2 13 -30 20 -61z m-321 15 c0 -17 -3 -18 -15 -8 -8 7 -15
21 -15 32 0 17 3 18 15 8 8 -7 15 -21 15 -32z m133 -21 c-7 -11 -23 12 -23 33
1 12 4 11 15 -4 8 -10 12 -23 8 -29z m268 -67 c15 -97 2 -203 -35 -280 -14
-31 -16 -32 -11 -7 3 15 8 83 10 150 4 89 2 118 -6 107 -8 -12 -9 -8 -5 15 4
17 9 47 13 68 8 53 20 35 34 -53z m-397 47 c21 -17 27 -28 20 -38 -5 -8 -9
-17 -9 -21 0 -3 -3 -9 -6 -13 -4 -3 -10 10 -13 29 -11 60 -27 53 -20 -8 5 -39
3 -56 -5 -56 -7 0 -11 23 -11 65 0 36 3 65 8 65 4 0 20 -11 36 -23z m166 -33
c0 -8 -4 -12 -10 -9 -5 3 -10 10 -10 16 0 5 5 9 10 9 6 0 10 -7 10 -16z m70
-46 c0 -9 -5 -20 -11 -23 -6 -4 -15 -17 -20 -29 -7 -17 -8 -15 -3 9 4 17 7 46
6 65 -2 32 -1 33 13 15 8 -11 15 -28 15 -37z m-153 0 c-3 -7 -5 -2 -5 12 0 14
2 19 5 13 2 -7 2 -19 0 -25z m100 -25 c-3 -10 -5 -4 -5 12 0 17 2 24 5 18 2
-7 2 -21 0 -30z m119 -40 c-8 -21 -24 -69 -36 -108 -14 -48 -28 -76 -45 -88
-29 -21 -29 -22 -10 33 17 49 20 84 5 75 -15 -9 -12 25 6 78 21 62 38 62 29 1
-3 -26 -9 -53 -12 -62 -4 -9 -1 -13 7 -10 8 2 18 20 22 39 22 95 30 113 39 97
6 -11 4 -30 -5 -55z m-177 -8 c0 -16 -4 -39 -8 -50 -7 -16 -10 -10 -16 27 -8
55 0 92 15 68 6 -8 9 -28 9 -45z m-99 -34 c-20 -46 -60 -96 -60 -75 0 5 -5 2
-10 -6 -7 -11 -10 -11 -10 -2 0 18 40 95 46 89 3 -3 -2 -19 -11 -37 -9 -18
-14 -34 -11 -37 6 -6 39 58 57 112 8 24 14 33 17 23 2 -9 -6 -39 -18 -67z
m320 36 c0 -35 -53 -228 -70 -255 -10 -15 -10 -14 -5 4 35 129 55 224 55 256
0 24 4 37 10 33 6 -3 10 -21 10 -38z m-378 -9 c-7 -7 -12 -8 -12 -2 0 6 3 14
7 17 3 4 9 5 12 2 2 -3 -1 -11 -7 -17z m208 -12 c0 -14 -4 -28 -10 -31 -6 -4
-10 7 -10 24 0 17 5 31 10 31 6 0 10 -11 10 -24z m27 -108 c-3 -7 -5 -2 -5 12
0 14 2 19 5 13 2 -7 2 -19 0 -25z m134 -60 c-6 -27 -21 -63 -32 -79 -22 -31
-16 -40 8 -11 14 16 14 16 8 -3 -4 -11 -9 -28 -12 -37 -3 -10 -14 -16 -25 -15
-15 1 -24 -7 -34 -35 -13 -37 -79 -118 -96 -118 -5 0 6 21 24 46 18 26 41 58
51 73 32 48 84 166 98 221 17 69 25 32 10 -42z m-297 50 c-4 -13 -7 -26 -6
-30 5 -20 -19 -58 -38 -58 -26 0 -26 16 0 32 11 7 20 18 20 25 0 20 20 66 26
60 3 -3 2 -16 -2 -29z m21 -37 c-17 -17 -17 -13 2 37 6 16 6 16 11 -2 2 -10
-4 -26 -13 -35z m191 -50 c-14 -46 -29 -87 -34 -90 -5 -3 -17 -24 -26 -46 -17
-41 -43 -75 -57 -75 -12 0 9 53 27 66 8 7 14 16 12 20 -5 16 24 74 36 74 7 0
23 34 36 76 32 102 37 81 6 -25z m-154 13 c-25 -65 -85 -138 -142 -175 -11 -7
-8 -8 10 -3 l25 6 -28 -21 c-15 -13 -34 -21 -42 -19 -15 3 64 92 116 131 16
12 18 17 6 13 -14 -5 -12 3 11 37 16 23 37 57 46 75 29 55 27 31 -2 -44z
m-143 0 c-43 -44 -71 -54 -30 -11 14 16 19 31 15 43 -4 13 -3 15 3 6 7 -10 14
-8 28 9 12 13 21 16 23 9 3 -7 -15 -32 -39 -56z m181 6 c-18 -33 -25 -15 -9
22 9 23 15 28 17 16 2 -9 -2 -27 -8 -38z m90 -20 c-7 -16 -16 -30 -21 -30 -12
0 -11 6 7 41 20 39 31 30 14 -11z m-96 -87 c-19 -41 -28 -53 -31 -40 -5 20 11
67 36 106 29 45 25 -4 -5 -66z m-124 69 c0 -10 -70 -82 -79 -82 -3 0 -13 4
-21 10 -12 7 -8 15 22 44 34 33 78 48 78 28z m74 -110 c-5 -34 -12 -42 -45
-58 -22 -9 -42 -15 -45 -12 -2 3 17 30 43 61 26 30 49 54 51 52 1 -1 0 -20 -4
-43z m-169 18 c-3 -5 -11 -10 -16 -10 -6 0 -7 5 -4 10 3 6 11 10 16 10 6 0 7
-4 4 -10z m25 -25 c-7 -8 -17 -15 -22 -15 -6 0 -5 7 2 15 7 8 17 15 22 15 6 0
5 -7 -2 -15z m-44 -52 c-10 -10 -19 5 -10 18 6 11 8 11 12 0 2 -7 1 -15 -2
-18z m224 13 c0 -3 -4 -8 -10 -11 -5 -3 -10 -1 -10 4 0 6 5 11 10 11 6 0 10
-2 10 -4z m140 -15 c0 -15 -87 -125 -109 -139 -37 -22 -23 5 39 78 61 70 70
78 70 61z m-225 -38 c-61 -54 -196 -110 -194 -81 0 7 8 33 18 57 14 35 19 40
25 26 4 -10 2 -23 -4 -29 -20 -20 -10 -29 11 -10 18 17 147 70 174 72 6 1 -8
-15 -30 -35z m81 -5 c-2 -14 -11 -24 -24 -26 -26 -4 -28 5 -5 30 22 24 34 23
29 -4z m-66 -23 c-7 -9 -15 -13 -17 -11 -7 7 7 26 19 26 6 0 6 -6 -2 -15z
m-50 -34 c0 -5 -7 -12 -16 -15 -14 -5 -15 -4 -4 9 14 17 20 19 20 6z m-90 -35
c0 -8 -92 -58 -97 -53 -11 12 19 46 44 50 46 7 53 7 53 3z m99 -20 c-17 -15
-98 -53 -103 -49 -3 4 -14 -1 -23 -10 -30 -26 -75 -40 -85 -25 -13 21 -10 24
27 25 20 1 47 8 60 17 17 11 25 13 25 5 0 -8 7 -6 18 4 9 9 29 20 42 26 25 10
47 14 39 7z m5 -35 c-16 -16 -137 -90 -186 -115 -26 -13 -44 -26 -41 -30 4 -4
0 -4 -10 0 -12 4 -17 1 -17 -10 0 -10 -9 -16 -25 -16 -16 0 -25 -6 -25 -15 0
-8 -7 -15 -15 -15 -9 0 -12 6 -9 15 4 8 9 15 13 15 4 0 22 16 41 35 19 19 44
35 55 35 16 0 109 49 205 108 18 11 28 6 14 -7z m-149 -61 c-3 -5 -12 -10 -18
-10 -7 0 -6 4 3 10 19 12 23 12 15 0z m-110 -30 c-3 -5 -13 -10 -21 -10 -8 0
-14 5 -14 10 0 6 9 10 21 10 11 0 17 -4 14 -10z"/>
<path d="M2290 705 c-7 -9 -8 -15 -2 -15 5 0 12 7 16 15 3 8 4 15 2 15 -2 0
-9 -7 -16 -15z"/>
<path d="M1814 546 c-10 -8 -17 -17 -14 -19 3 -3 14 1 24 9 11 7 17 16 15 19
-3 3 -14 -2 -25 -9z"/>
<path d="M521 1924 c-24 -18 -40 -34 -36 -34 7 0 95 61 95 67 0 9 -19 -2 -59
-33z"/>
<path d="M2585 1930 c-3 -6 1 -13 10 -16 19 -8 30 0 20 15 -8 14 -22 14 -30 1z"/>
<path d="M2120 290 c-9 -6 -10 -10 -3 -10 6 0 15 5 18 10 8 12 4 12 -15 0z"/>
<path d="M2120 240 c-8 -5 -10 -10 -5 -10 6 0 17 5 25 10 8 5 11 10 5 10 -5 0
-17 -5 -25 -10z"/>
<path d="M2030 205 c-14 -8 -20 -14 -15 -14 6 0 21 6 35 14 14 8 21 14 15 14
-5 0 -21 -6 -35 -14z"/>
<path d="M1943 182 c-3 -13 -17 -23 -35 -27 -16 -4 -27 -9 -25 -12 6 -6 85 15
91 25 2 4 -3 13 -11 21 -12 11 -15 10 -20 -7z"/>
</g>
</svg>
