<?xml version="1.0" encoding="UTF-8" standalone="no"?>
<!-- Uploaded to: SVG Repo, www.svgrepo.com, Generator: SVG Repo Mixer Tools -->

<svg
   width="800px"
   height="800px"
   viewBox="-52.05 0 684.34 684.34"
   id="Layer_1"
   version="1.1"
   xml:space="preserve"
   sodipodi:docname="grass-leaf-plant-15-svgrepo-com.svg"
   inkscape:version="1.4.2 (ebf0e940, 2025-05-08)"
   xmlns:inkscape="http://www.inkscape.org/namespaces/inkscape"
   xmlns:sodipodi="http://sodipodi.sourceforge.net/DTD/sodipodi-0.dtd"
   xmlns:xlink="http://www.w3.org/1999/xlink"
   xmlns="http://www.w3.org/2000/svg"
   xmlns:svg="http://www.w3.org/2000/svg"><defs
   id="defs5" /><sodipodi:namedview
   id="namedview5"
   pagecolor="#ffffff"
   bordercolor="#000000"
   borderopacity="0.25"
   inkscape:showpageshadow="2"
   inkscape:pageopacity="0.0"
   inkscape:pagecheckerboard="0"
   inkscape:deskcolor="#d1d1d1"
   inkscape:zoom="0.69376179"
   inkscape:cx="330.80519"
   inkscape:cy="375.48911"
   inkscape:window-width="1472"
   inkscape:window-height="894"
   inkscape:window-x="0"
   inkscape:window-y="34"
   inkscape:window-maximized="0"
   inkscape:current-layer="g4" />

<style
   type="text/css"
   id="style1">
	.st0{clip-path:url(#SVGID_2_);}
	.st1{clip-path:url(#SVGID_4_);}
	.st2{clip-path:url(#SVGID_6_);}
	.st3{clip-path:url(#SVGID_8_);}
	.st4{clip-path:url(#SVGID_10_);}
	.st5{clip-path:url(#SVGID_12_);}
	.st6{clip-path:url(#SVGID_14_);}
	.st7{clip-path:url(#SVGID_16_);}
	.st8{clip-path:url(#SVGID_18_);}
	.st9{clip-path:url(#SVGID_20_);}
	.st10{clip-path:url(#SVGID_22_);}
	.st11{clip-path:url(#SVGID_24_);}
	.st12{clip-path:url(#SVGID_26_);}
	.st13{clip-path:url(#SVGID_28_);}
	.st14{clip-path:url(#SVGID_30_);}
	.st15{clip-path:url(#SVGID_32_);}
	.st16{clip-path:url(#SVGID_34_);}
	.st17{clip-path:url(#SVGID_36_);}
	.st18{clip-path:url(#SVGID_38_);}
	.st19{clip-path:url(#SVGID_40_);}
</style>

<g
   id="g5">

<defs
   id="defs1">

<rect
   height="684.34"
   id="SVGID_19_"
   width="580.24"
   y="0" />

</defs>

<clipPath
   id="SVGID_2_">

<use
   style="overflow:visible;"
   xlink:href="#SVGID_19_"
   id="use1" />

</clipPath>

<g
   class="st0"
   clip-path="url(#SVGID_2_)"
   id="g4">

<path
   d="m 88.7,485.83 c 7.09,7.13 14.85,13.63 21.14,21.53 10.74,13.48 20.8,27.63 30.68,41.89 7.08,10.22 13.39,21.09 20.06,31.66 2.63,4.16 5.31,8.28 8.33,12.97 0,-1.8 0.24,-2.93 -0.04,-3.88 -5.1,-17.46 -7.92,-35.82 -16.38,-51.97 -4.29,-8.19 -8.63,-16.55 -14.16,-23.73 -10.4,-13.5 -21.08,-26.87 -32.72,-39.06 -16.51,-17.28 -34.44,-32.82 -53.54,-46.68 -0.27,-0.2 -0.37,-0.67 -0.29,-1.36 37.95,18.42 69.95,45.49 97.75,80.62 -0.24,-2.04 -0.13,-3.25 -0.53,-4.21 -4.17,-10.03 -8.11,-20.18 -12.71,-29.97 -6.23,-13.23 -12.78,-26.28 -19.57,-39.18 -4.46,-8.46 -9.32,-16.7 -14.49,-24.65 -3.29,-5.05 -7.53,-9.35 -11.26,-14.07 -3.91,-4.96 -7.69,-10.04 -11.55,-15.05 -6.68,-8.67 -13.37,-17.31 -20.06,-25.98 -0.3,-0.4 -0.55,-0.84 -1.54,-2.37 1.85,0.59 2.84,0.61 3.44,1.15 8.67,7.65 17.78,14.81 25.8,23.21 12.83,13.44 25.26,27.38 37.26,41.72 13.58,16.22 26.96,32.71 39.6,49.81 17.23,23.3 30.21,49.56 41.01,76.98 5.63,14.28 10.43,29.05 14.31,44.01 3.27,12.61 4.65,25.79 6.4,38.9 0.25,-1.09 0.5,-2.19 0.82,-3.57 2.95,0 5.83,0 9.56,0 -0.6,-2.65 -1.13,-4.79 -1.55,-6.95 -2.64,-13.55 -5.11,-27.13 -7.92,-40.64 -3.77,-18.17 -7.55,-36.35 -11.76,-54.41 -4.49,-19.29 -9.43,-38.46 -14.29,-57.64 -1.64,-6.46 -4.57,-12.04 -9.41,-16.55 -13.98,-13.06 -27.5,-26.69 -41.67,-39.49 -8.5,-7.67 -17.86,-14.2 -26.85,-21.23 -7.47,-5.84 -14.8,-11.92 -22.48,-17.41 -7.33,-5.24 -14.94,-10.05 -22.6,-14.71 -7.56,-4.6 -15.11,-9.4 -23.09,-12.98 -11.47,-5.14 -23.33,-9.24 -35.37,-13.43 2.15,0 4.3,-0.02 6.45,0.01 2.17,0.03 4.36,-0.06 6.51,0.18 11.59,1.33 22.92,4.09 33.89,8.32 19.77,7.64 38.72,17.26 56.23,29.93 13.92,10.07 27.84,20.18 41.25,31.03 8.5,6.88 16.06,15.15 24.06,22.77 0.63,0.6 1.44,0.99 2.64,0.99 -35.11,-51.38 -72.97,-100.15 -114.22,-145.89 20.16,12.47 36.91,29.84 54.51,45.96 17.88,16.38 34.62,34.07 50.15,53.27 -2.02,-5.55 -4.25,-11.02 -6.03,-16.66 -4.96,-15.69 -9.68,-31.47 -14.59,-47.19 -6.86,-21.98 -13.57,-44.02 -20.8,-65.85 -6.7,-20.25 -13.73,-40.39 -21.1,-60.35 -10.94,-29.61 -23.57,-58.38 -37.41,-86.5 -1.42,-2.89 -2.82,-5.8 -3.48,-9.22 4.31,6.81 9.02,13.36 12.86,20.47 8.21,15.22 16.53,30.42 23.77,46.2 11.38,24.8 22.53,49.77 32.64,75.2 15.56,39.12 29.63,78.94 41.93,119.44 7.97,26.27 15.28,52.77 22.98,79.14 0.49,1.69 1.58,3.34 2.76,4.58 11.87,12.42 23.89,24.67 32.86,39.93 0.58,0.98 1.13,1.97 2.53,2.87 -0.79,-7.47 -0.94,-15.1 -2.5,-22.37 -4.7,-22.04 -9.62,-44.04 -15.11,-65.87 -2.83,-11.23 -6.96,-22.09 -10.66,-33.05 -3.66,-10.86 -7.53,-21.64 -10.93,-32.64 8.2,9.21 14.94,19.45 21.09,30.27 6.93,12.18 10.36,25.54 13.01,39.34 3.39,17.69 7.47,35.24 10.49,53 1.85,10.89 2.32,22.07 3.32,33.12 0.39,4.26 0.53,8.55 1.58,12.88 0.7,-6.17 1.61,-12.33 2.04,-18.52 0.52,-7.5 0.68,-15.04 0.93,-22.56 0.29,-9.05 0.43,-18.11 0.78,-27.17 0.26,-6.83 -1.01,-12.93 -3.77,-19.32 -4.18,-9.67 -6.73,-20.17 -9.98,-30.32 -0.76,-2.37 -1.53,-4.74 -2.3,-7.11 0.45,-0.25 0.9,-0.49 1.35,-0.74 5.34,8.17 10.69,16.34 16.03,24.5 0.27,-0.09 0.53,-0.17 0.8,-0.26 -0.28,-1.07 -0.35,-2.28 -0.87,-3.19 -4.29,-7.59 -8.64,-15.13 -13.01,-22.66 -7.72,-13.28 -15.93,-26.24 -23.06,-39.89 -6.67,-12.78 -12.31,-26.21 -18.19,-39.48 -2.42,-5.45 -4.27,-11.21 -6.13,-16.94 27.31,27.26 44.14,62.84 64.92,96.8 0,-2.71 0.04,-4.23 -0.01,-5.74 -0.13,-4.85 -0.79,-9.76 -0.3,-14.53 0.46,-4.53 1.95,-8.98 3.3,-13.35 0.83,-2.67 2.24,-5.13 2.98,-6.78 -7.72,-14.62 -14.95,-28.33 -22.12,-41.93 1.17,16.53 2.35,33.18 3.53,49.83 -0.53,0.1 -1.06,0.19 -1.59,0.29 -13.09,-42.66 -26.18,-85.32 -39.26,-127.98 0.38,-0.16 0.75,-0.32 1.13,-0.47 2.81,3.63 5.64,7.24 8.43,10.89 2.75,3.6 5.37,7.33 8.23,10.83 2.63,3.22 3.75,8.06 7.8,9.74 -13.2,-30.56 -19.75,-63.07 -26.84,-95.39 0.36,-0.13 0.73,-0.26 1.09,-0.4 2.64,7.54 5.38,15.04 7.92,22.62 6.82,20.39 14.39,40.37 23.64,59.65 7.37,15.35 13.43,31.43 20.13,47.16 3.96,9.29 8.04,18.51 12.46,27.65 0.96,-6.47 0.01,-12.75 -2.12,-18.61 -10.16,-27.93 -20.34,-55.83 -26.76,-85.15 -1.26,-5.76 -2.19,-11.61 -3.24,-17.43 -0.06,-0.34 0.25,-0.75 0.67,-1.87 13.93,27.32 28.18,53.82 35.69,83.78 0.68,-4.34 1.39,-8.93 2.12,-13.52 0.73,-4.59 1.53,-9.17 2.15,-13.78 0.13,-0.99 -0.13,-2.21 -0.58,-3.09 -4.3,-8.49 -8.89,-16.8 -12.97,-25.41 -4.91,-10.36 -9.77,-20.78 -13.97,-31.5 -6.28,-16.02 -11.99,-32.32 -17.9,-48.51 -0.51,-1.39 -0.68,-2.92 -0.23,-5.04 3.99,5.11 8.06,10.14 11.94,15.34 3.94,5.28 7.86,10.6 11.46,16.16 3.69,5.68 6.99,11.67 10.85,17.32 -3.48,-13.57 -1.98,-26.95 -0.19,-40.34 5.38,28.72 12.29,57.1 14.9,86.9 4.64,-12.18 7.2,-24.52 6.2,-37.17 -1.01,-12.74 -3.63,-25.33 -5.32,-38.01 -1.11,-8.35 -2.22,-16.73 -2.62,-25.14 -0.67,-14.15 -0.77,-28.34 -1.11,-42.51 -0.02,-0.8 0.06,-1.59 0.57,-2.49 9.89,25.56 16.12,52.08 17.84,80.15 2.61,-8.67 5.16,-17.21 7.74,-25.74 6.17,-20.37 11.95,-41 22.98,-59.02 6.73,-10.99 14.45,-21.24 21.75,-31.81 0.51,-0.73 1.23,-1.29 2.4,-1.6 -10.44,21.45 -19.97,43.25 -26.06,66.84 15.16,-19.03 31.77,-36.16 52.43,-47.72 20.5,-11.46 41.89,-19.74 65.56,-18.56 -3.25,1.07 -6.63,1.8 -9.71,3.29 -9.19,4.44 -18.74,8.33 -27.27,14 -12.03,8 -23.74,16.79 -34.74,26.39 -10.58,9.23 -20.54,19.46 -29.97,30.1 -11.8,13.32 -22.83,27.45 -34.05,41.37 -2.05,2.54 -3.38,5.78 -5.37,9.28 15.4,-12.78 29.65,-25.64 44.86,-36.93 15.28,-11.35 31.37,-21.54 51.2,-24.24 -18.21,11.89 -34.77,24.74 -50.63,38.59 -17.64,15.41 -35.26,30.91 -50.11,49.7 -4.03,5.1 -7.4,10.62 -7.84,17.7 30.04,-31.13 59.86,-62.2 97,-82.99 0.26,0.28 0.52,0.57 0.79,0.85 -1.56,2.21 -3,4.53 -4.7,6.6 -8.71,10.61 -17.05,21.66 -26.37,31.6 -10.67,11.37 -22.3,21.65 -33.4,32.53 -12.41,12.16 -24.39,24.89 -37.23,36.48 -4.84,4.37 -5.34,9 -5.47,14.76 -0.15,6.75 -0.74,13.49 -0.76,20.47 12.46,-23.7 27.4,-45.28 44.65,-65.03 -12.31,37.28 -31.49,70.45 -51.2,103.12 -0.32,5.9 -0.64,11.68 -0.95,17.47 0.27,0.24 0.53,0.49 0.8,0.73 21.61,-30.96 43.62,-61.49 73.28,-84.1 -2.05,2.62 -4.24,5.13 -6.11,7.89 -9.2,13.53 -18.44,27.05 -27.44,40.74 -10.02,15.25 -19.76,30.72 -29.72,46.02 -5.18,7.96 -10.5,15.83 -15.91,23.61 -4.14,5.95 -4.9,12.69 -4.71,19.76 0.32,0.2 0.64,0.41 0.96,0.61 8.36,-14.66 16.46,-29.51 25.15,-43.94 8.89,-14.74 18.36,-29.06 27.58,-43.57 0.36,0.04 0.72,0.08 1.09,0.12 0.09,1.04 0.56,2.27 0.21,3.08 -8.95,20.49 -17.48,41.23 -27.16,61.31 -9.99,20.75 -21.17,40.82 -31.64,61.3 -1.13,2.22 -1.64,5.36 -1.26,7.85 1.03,6.68 1.16,13.09 -0.26,19.82 -1.1,5.2 -0.51,10.81 -0.85,16.22 -0.46,7.33 -1.1,14.65 -1.61,21.99 -0.07,1 0.18,2.03 0.93,3.08 3.49,-11.41 6.65,-22.95 10.54,-34.2 10.46,-30.24 20.95,-60.47 32,-90.46 6.02,-16.34 12.72,-32.43 19.98,-48.15 4.91,-10.62 11.35,-20.4 17.1,-30.56 0.46,0.28 0.93,0.56 1.39,0.84 -1.6,3.96 -3.35,7.86 -4.79,11.89 -5.02,14.06 -9.7,28.26 -14.95,42.22 -6.28,16.7 -12.69,33.36 -19.6,49.77 -13.78,32.75 -27.07,65.72 -38,99.76 -1.11,3.45 -1.67,7.1 -2.49,10.66 0.38,0.1 0.76,0.21 1.14,0.31 4.61,-12.21 9.22,-24.43 13.83,-36.64 9.26,-24.56 20.42,-47.95 35.54,-68.92 3.61,-5.01 7.49,-9.93 10.3,-15.46 2.28,-4.47 3.09,-9.82 4.65,-14.75 7.18,-22.79 14.51,-45.53 21.56,-68.37 13.19,-42.73 29.24,-84.14 47.42,-124.61 9.6,-21.37 20.35,-42.04 32.92,-61.4 8.64,-13.29 18.83,-25.42 28.71,-37.69 11.33,-14.07 24.91,-25.44 38.75,-36.37 4.33,-3.42 9.2,-6.04 14.12,-8.52 -6.28,5.59 -12.66,11.06 -18.83,16.8 -17.67,16.42 -34.28,34.04 -48.49,54.11 -12.85,18.16 -23.73,37.76 -33.13,58.29 -7.74,16.92 -15.51,33.84 -22.49,51.14 -7.18,17.79 -13.69,35.93 -20,54.12 -6.78,19.55 -13.21,39.25 -19.39,59.04 -7.2,23.05 -14.24,46.16 -20.83,69.42 -7.84,27.63 -15.48,55.33 -22.55,83.2 -6.89,27.16 -13.22,54.49 -19.3,81.88 -5.08,22.91 -9.46,46.01 -14.12,69.03 -0.24,1.16 -0.26,2.38 -0.4,3.75 5.26,1.17 10.18,2.26 15.41,3.42 0.39,-4.38 0.74,-8.91 1.19,-13.43 2.39,-24.11 6.46,-47.9 11.64,-71.46 5.32,-24.2 10.45,-48.47 16.17,-72.56 5.81,-24.5 12.23,-48.83 18.4,-73.23 0.26,-1.04 0.67,-2.05 1.65,-2.92 -5.24,28.54 -10.49,57.08 -15.73,85.62 0.47,0.13 0.95,0.25 1.42,0.38 1.9,-7.33 3.94,-14.61 5.68,-21.98 6.69,-28.37 12.64,-56.98 20.12,-85.1 6.3,-23.69 14.43,-46.82 24.63,-68.9 10.52,-22.79 21.1,-45.58 32.71,-67.71 7.33,-13.96 15.96,-27.27 25.15,-39.87 11.43,-15.66 23.54,-30.81 36.28,-45.22 14.17,-16.03 30.16,-29.85 47.4,-41.93 12.17,-8.52 24.6,-16.32 38.44,-21.17 1.13,-0.4 2.28,-0.75 3.81,-0.22 -1.96,1.25 -3.85,2.64 -5.88,3.73 -15.73,8.51 -29.71,19.89 -43.45,31.64 -15.29,13.07 -28.31,28.64 -40.86,44.72 -13.18,16.88 -24.86,34.92 -35.16,53.99 -11.8,21.85 -23.35,43.87 -34.44,66.16 -6.42,12.89 -11.72,26.44 -17.49,39.71 -0.26,0.59 -0.18,1.36 0.41,2.4 3.84,-4.64 7.62,-9.35 11.54,-13.92 8.24,-9.6 16.34,-19.35 24.89,-28.61 6.56,-7.1 13.39,-14.02 20.7,-20.16 8.82,-7.4 18.05,-14.3 27.53,-20.67 15.12,-10.17 31.01,-18.8 47.92,-24.89 8.53,-3.07 17.06,-6.5 26.78,-6.31 -7.21,3.7 -14.16,6.74 -20.63,10.71 -11.45,7.04 -22.77,14.35 -33.81,22.13 -7.79,5.49 -15.37,11.49 -22.41,18.08 -13.49,12.62 -26.72,25.58 -39.7,38.82 -13.75,14.04 -25.79,29.75 -37.07,46.23 -9.88,14.56 -16.94,30.64 -22.2,47.64 -7.3,23.6 -14.58,47.25 -20.55,71.28 -5.27,21.2 -8.75,42.93 -12.98,64.44 -0.24,1.23 -0.16,2.55 0.3,4.06 1.24,-3.28 2.28,-6.68 3.77,-9.82 7.06,-14.87 13.32,-30.31 21.63,-44.31 10.15,-17.11 18.3,-35.3 27.21,-53.09 5.99,-11.97 12.59,-23.57 18.89,-35.35 5.41,-10.11 10.59,-20.38 16.23,-30.33 9.09,-16.04 18.37,-31.97 27.79,-47.79 4.63,-7.78 9.48,-15.43 14.69,-22.76 7.85,-11.04 16.52,-21.4 24.06,-32.67 7.18,-10.73 16.79,-18.37 25.98,-26.81 -46.18,57.25 -75.94,125.25 -106.96,192.44 22.28,-20.14 46,-37.24 73.1,-48.29 -5.83,4.31 -11.9,8.28 -17.44,12.99 -11.78,10.01 -23.46,20.19 -34.86,30.71 -6.07,5.61 -12.16,11.5 -17.04,18.28 -8.94,12.41 -15,26.77 -20.56,41.31 -3.69,9.64 -7.2,19.37 -10.77,29.07 -0.4,1.08 -0.63,2.24 -0.59,3.62 26.56,-34.24 57.34,-62.26 94.85,-80.68 0.22,0.32 0.45,0.64 0.67,0.97 -5.54,4.31 -11.23,8.42 -16.6,12.98 -14.97,12.69 -29.37,26.11 -42.03,41.58 -9.19,11.23 -18.58,22.34 -27.07,34.19 -12.16,16.96 -19.24,36.64 -23.59,57.56 -1.22,5.87 -2.86,11.63 -4.27,17.45 -0.18,0.73 -0.16,1.52 -0.34,3.52 3.29,-5.89 5.87,-10.74 8.65,-15.45 6.52,-11.06 12.53,-22.56 19.83,-32.97 12.09,-17.26 24.64,-34.18 37.79,-50.47 5.54,-6.87 13.08,-11.81 19.76,-17.57 0.63,-0.54 1.59,-0.62 2.83,-0.34 -3.34,3.79 -6.92,7.36 -9.99,11.4 -9.03,11.91 -18.47,23.54 -26.63,36.14 -13.92,21.48 -27.31,43.38 -40.25,65.58 -5.28,9.05 -8.65,19.41 -13.15,29.03 -3.47,7.43 -7.3,14.67 -11.05,21.95 -0.59,1.14 -1.56,2.03 -3.02,3.88 -5.8,-31.72 0.96,-60.47 10.82,-88.93 -13.23,23.48 -22.4,49 -34.19,72.88 0.37,0.73 0.48,1.17 0.74,1.42 5.99,5.87 5.78,9.17 -0.69,14.54 -7.53,6.25 -16.45,8.15 -25.41,9.59 -19.28,3.08 -38.67,3.72 -58.1,1.86 -11.74,-1.12 -23.3,-3.38 -34.37,-7.88 -2.92,-1.19 -5.64,-3.34 -8.06,-5.55 -3.35,-3.07 -2,-8.17 2.53,-10.83 1.9,-1.12 3.69,-2.44 5.5,-3.65 -7.27,-17.03 -14.99,-32.66 -25.54,-46.58 4.12,19.93 6.59,39.9 3.26,61.59 -26.8,-57.48 -57.36,-110.89 -95.11,-159.5 0.47,-0.9 0.93,-1.38 1.39,-1.86 z m 55.35,-21.18 c 19.75,38.89 39.49,77.79 59.24,116.68 0.39,-0.21 0.77,-0.42 1.16,-0.63 -0.27,-1.02 -0.44,-2.08 -0.83,-3.04 -3.93,-9.61 -7.62,-19.34 -11.92,-28.75 -7.41,-16.24 -14.67,-32.61 -23,-48.29 -7.03,-13.23 -15.48,-25.56 -23.5,-38.8 -1.74,-1.98 -2.39,-5.34 -6.44,-6.16 2.07,3.43 3.57,5.94 5.29,8.99 z m 158.96,-2.19 c 1.89,-7.18 3.78,-14.37 5.84,-22.24 -1.09,0.63 -1.54,0.72 -1.71,1.01 -6.66,10.78 -13.64,21.35 -19.84,32.44 -8.01,14.33 -14.73,29.42 -19.87,45.29 -0.58,1.79 -1.52,3.58 -1.59,5.4 -0.69,17.6 -0.03,35.18 -1.74,52.83 -1.55,15.98 -0.33,32.29 -0.33,48.45 0.35,0.03 0.7,0.05 1.05,0.08 0.17,-1.17 0.34,-2.33 0.51,-3.5 0.24,0.2 0.48,0.4 0.71,0.6 0.82,-1.01 1.64,-2.03 2.45,-3.05 0.17,0.56 0.34,1.12 0.46,1.53 1.99,-11.2 3.69,-22.42 6,-33.49 6.18,-29.66 12.51,-59.28 18.99,-88.87 2.65,-12.04 5.83,-23.92 9.07,-36.48 z m -46.25,160.19 c 0.33,-0.81 1.01,-1.66 0.93,-2.41 -0.64,-5.62 -1.87,-11.2 -2.09,-16.84 -0.84,-21.67 -1.64,-43.35 -1.83,-65.03 -0.06,-6.36 -1.44,-11.64 -4.68,-16.63 -0.74,-1.13 -1.39,-2.33 -2.11,-3.47 -5.06,-7.97 -10.35,-15.71 -17.74,-21.84 10,41.37 19.47,82.46 20.28,125.02 2.79,0.43 4.78,0.73 7.24,1.2 z m 33.47,-162.49 c 6.08,-9.35 12.26,-18.62 18.19,-28.09 2.18,-3.48 4.28,-7.22 5.51,-11.18 3.5,-11.31 6.55,-22.78 9.74,-34.21 0.25,-0.91 0.23,-1.9 0.4,-3.44 -13.61,12.85 -55.27,105.78 -58.88,128.91 7.52,-15.67 16.13,-33.58 25.04,-51.99 z m -36.77,49.71 c -0.21,-1.06 -0.57,-2.11 -0.6,-3.18 -0.18,-6.86 -2.27,-13.03 -4.89,-19.23 -3.84,-9.08 -9.46,-16.67 -15.49,-23.92 -3.67,-4.41 -7.92,-8.23 -12.59,-13 2.31,10.1 4.1,19.07 6.49,27.84 1.25,4.62 3.12,9.19 5.47,13.26 2.98,5.18 6.74,9.84 10.15,14.73 3.98,5.7 7.95,11.41 12.22,17.53 -0.26,-4.83 -0.49,-9.07 -0.76,-14.03 z m 88.3,50.19 c 10.45,-19.8 19.93,-40.11 27.96,-61.25 3.67,-9.66 8.35,-18.87 12.53,-28.3 0.66,-1.5 1.12,-3.1 2.03,-5.65 -16.19,14.24 -56.32,108.71 -53.92,119.19 3.86,-8.09 7.53,-15.75 11.4,-23.99 z m -156.91,22.12 c 3.76,6.46 7.51,12.91 11.27,19.37 0.33,-0.24 0.66,-0.47 0.98,-0.71 -5.63,-15.57 -12.48,-30.4 -21.51,-43.91 -0.43,0.23 -0.87,0.47 -1.3,0.7 3.42,8.01 6.84,16.02 10.56,24.55 z M 393.91,432.7 c 2.4,-7.15 4.8,-14.3 7.2,-21.46 -0.38,-0.17 -0.76,-0.35 -1.14,-0.52 -6.17,12.77 -12.33,25.53 -18.5,38.3 0.35,0.27 0.71,0.54 1.06,0.8 4.24,-5.07 8.29,-10.32 11.38,-17.12 z"
   id="path1"
   style="display:none" />

<path
   d="m 385.09,604.6719 c 2.79,-4.64334 5.25,-9.30971 8.49,-13.56163 11.2,-14.69752 22.45,-29.38737 34.16,-43.80091 4.54,-5.59504 10.35,-10.46863 15.65,-15.63387 0.55,-0.52958 1.5,-0.77517 2.59,-0.72912 -12.82,17.79052 -25.78,35.5043 -38.41,53.3946 -12.61,17.8596 -21.03,37.34628 -30.08,57.45465 -2.93,-8.19685 1.84,-29.6253 7.6,-37.12372 z"
   id="path2"
   style="display:inline;stroke-width:0.876067" /><path
   d="m 254.73448,500.161 c 3.00634,-17.12442 5.65708,-34.33375 9.14833,-50.01461 12.06846,-54.2037 24.19079,-108.37912 36.8088,-161.53555 4.89204,-20.6342 11.15255,-38.60775 16.86353,-57.65689 0.59265,-1.95304 1.6163,-2.85878 2.79083,-2.68895 -13.81408,65.61055 -27.77902,130.93805 -41.38836,196.91655 -13.5878,65.86529 -22.6607,137.7312 -32.41244,211.88981 -3.1572,-30.22954 1.98267,-109.25657 8.18931,-136.91036 z"
   id="path2-3"
   style="display:inline;stroke-width:1.74641" /><path
   d="m 250.61866,470.13531 c 4.93665,-21.68821 9.28938,-43.48395 15.02229,-63.34388 19.81739,-68.64941 39.7232,-137.26298 60.443,-204.586 8.03313,-26.13337 18.31339,-48.89701 27.69127,-73.02289 0.97317,-2.47354 2.65409,-3.62066 4.58276,-3.40557 -22.68382,83.09626 -45.61537,165.83402 -67.96299,249.3963 -22.31225,83.41889 -37.21067,174.4376 -53.22381,268.36005 -5.18438,-38.28594 3.2557,-138.37428 13.44748,-173.39801 z"
   id="path2-3-2"
   style="display:inline;stroke-width:2.51853" /><path
   d="m 228.58857,500.2123 c 1.78042,-15.74083 3.35024,-31.55972 5.41782,-45.97364 7.14717,-49.82427 14.32626,-99.62252 21.79888,-148.48413 2.89716,-18.96704 6.60476,-35.48841 9.9869,-52.99845 0.35098,-1.79524 0.95722,-2.6278 1.65279,-2.47171 -8.18096,60.30949 -16.45127,120.35879 -24.51098,181.00652 -8.04696,60.54364 -13.4201,126.60307 -19.19528,194.76997 -1.86975,-27.78712 1.17418,-100.42908 4.84987,-125.84856 z"
   id="path2-2"
   style="display:inline;stroke-width:1.28853" /><path
   d="m 328.58318,543.48317 c 4.88129,-11.79185 9.18522,-23.64217 14.85381,-34.44 19.59514,-37.32463 39.27775,-74.62976 59.76517,-111.23323 7.94303,-14.20869 18.108,-26.58526 27.3807,-39.70247 0.96226,-1.34486 2.62435,-1.96857 4.53138,-1.85163 -22.42944,45.17937 -45.10381,90.16382 -67.20082,135.59656 -22.06203,45.35478 -36.79337,94.84158 -52.62694,145.90712 -5.12623,-20.81604 3.2192,-75.23397 13.2967,-94.27635 z"
   id="path2-39"
   style="display:inline;stroke-width:1.84663" /><path
   d="m 306.5345,513.31932 c 4.41255,-14.87609 8.30319,-29.82594 13.42744,-43.44801 17.71347,-47.08712 35.50601,-94.14965 54.02608,-140.32701 7.18028,-17.92506 16.36914,-33.53881 24.7514,-50.08692 0.86986,-1.69661 2.37234,-2.48344 4.09624,-2.33591 -20.27559,56.99631 -40.7726,113.74675 -60.7477,171.06271 -19.94347,57.21762 -33.2602,119.64801 -47.57332,184.07008 -4.63397,-26.26059 2.91007,-94.9119 12.01986,-118.93494 z"
   id="path2-22"
   style="display:inline;stroke-width:1.97201" /><path
   d="m 365.69297,546.92395 c 4.701,-11.79185 8.84597,-23.64217 14.3052,-34.44 18.87142,-37.32463 37.82709,-74.62976 57.55783,-111.23323 7.64966,-14.20869 17.43921,-26.58527 26.36944,-39.70248 0.92672,-1.34486 2.52742,-1.96857 4.36401,-1.85162 -21.60103,45.17936 -43.43796,90.16382 -64.71885,135.59656 -21.2472,45.35478 -35.43446,94.84158 -50.68324,145.90711 -4.9369,-20.81603 3.10031,-75.23397 12.80561,-94.27634 z"
   id="path2-7"
   style="display:inline;stroke-width:1.8122" />

<path
   d="m 140.82,616.33014 c -5.92,-10.21535 -11.14,-20.4921 -17.76,-30.09346 -12,-17.4298 -24.83,-34.46051 -37.29,-51.66774 -0.46,-0.6447 -0.76,-1.36614 -1.13,-2.05688 0.29,-0.19188 0.58,-0.38375 0.87,-0.57563 1.11,0.8596 2.29,1.65779 3.31,2.57878 17.71,16.00994 31.85,34.16119 44.59,53.07994 5.59,8.29661 10.78,16.84651 15.16,25.62664 2.23,4.46682 2.51,9.67811 3.19,14.59775 0.46,3.33092 0.09,6.74628 0.09,10.6912 -5.92,-6.84605 -6.85,-14.96614 -11.03,-22.1806 z"
   id="path3"
   style="display:inline;stroke-width:0.876067" /><path
   d="M 240.20799,559.25793 C 228.77115,529.18827 218.68665,498.93788 205.8975,470.67556 182.71474,419.36963 157.92851,369.23849 133.85707,318.58771 c -0.88867,-1.8977 -1.46825,-4.02133 -2.18305,-6.05459 0.56026,-0.5648 1.12051,-1.12958 1.68076,-1.69437 2.1444,2.53027 4.42404,4.87981 6.39458,7.59083 34.21388,47.12644 61.5309,100.556 86.14327,156.24473 10.79931,24.42172 20.82585,49.58895 29.28755,75.43394 4.30814,13.14842 4.84907,28.48824 6.16276,42.96957 0.88867,9.80482 0.17387,19.85817 0.17387,31.47034 -11.43683,-20.15186 -13.2335,-44.05396 -21.30882,-65.29023 z"
   id="path3-2"
   style="display:inline;stroke-width:2.08914" /><path
   d="M 308.64798,564.15333 C 297.21114,534.08367 287.12664,503.83328 274.33749,475.57097 251.15473,424.26504 226.3685,374.13389 202.29706,323.48312 c -0.88867,-1.89771 -1.46825,-4.02133 -2.18305,-6.0546 0.56026,-0.56479 1.12051,-1.12958 1.68076,-1.69437 2.1444,2.53027 4.42404,4.87981 6.39458,7.59083 34.21388,47.12644 61.5309,100.556 86.14327,156.24473 10.79931,24.42172 20.82585,49.58895 29.28755,75.43395 4.30814,13.14842 4.84907,28.48823 6.16276,42.96956 0.88867,9.80484 0.17387,19.85817 0.17387,31.47034 -11.43683,-20.15186 -13.2335,-44.05396 -21.30882,-65.29023 z"
   id="path3-2-0"
   style="display:inline;stroke-width:2.08914" /><path
   d="m 210.89191,594.02639 c -3.63446,-21.56066 -6.83917,-43.25091 -10.90337,-63.51569 -7.36714,-36.78757 -15.24384,-72.73281 -22.8934,-109.05065 -0.2824,-1.3607 -0.46659,-2.8834 -0.69374,-4.34129 0.17804,-0.40498 0.35608,-0.80994 0.53412,-1.21491 0.68146,1.81427 1.4059,3.49895 2.03211,5.4428 10.87267,33.7908 19.55362,72.1011 27.37507,112.03126 3.43186,17.51096 6.61815,35.55647 9.30715,54.08795 1.36907,9.42774 1.54097,20.42675 1.95844,30.81022 0.2824,7.0303 0.0553,14.23879 0.0553,22.56499 -3.63446,-14.44937 -4.20541,-31.58775 -6.77163,-46.81468 z"
   id="path3-2-0-9"
   style="display:inline;stroke-width:0.997248" /><path
   d="m 298.2897,552.53955 c 6.13418,-39.30588 11.54305,-78.84799 18.40255,-115.79138 12.43416,-67.06509 25.72835,-132.59456 38.63915,-198.80325 0.47664,-2.4806 0.7875,-5.25653 1.17088,-7.91433 -0.3005,-0.73828 -0.60099,-1.47655 -0.90148,-2.21483 -1.15015,3.30749 -2.37285,6.37873 -3.42975,9.92244 -18.35075,61.60185 -33.00233,131.44287 -46.20325,204.23698 -5.79225,31.9231 -11.17002,64.82072 -15.70849,98.60429 -2.31068,17.18709 -2.60082,37.23869 -3.30542,56.16811 -0.47664,12.8165 -0.0933,25.95783 -0.0933,41.1368 6.13419,-26.34173 7.09783,-57.58561 11.42906,-85.34483 z"
   id="path3-2-9"
   style="display:inline;stroke-width:1.74928" /><path
   d="m 226.56914,547.58249 c -6.15643,-38.11692 -11.58492,-76.46293 -18.46931,-112.28882 -12.47926,-65.03645 -25.82167,-128.58373 -38.77931,-192.78969 -0.47837,-2.40557 -0.79035,-5.09753 -1.17513,-7.67493 0.30159,-0.71594 0.60317,-1.43189 0.90475,-2.14784 1.15433,3.20745 2.38146,6.18578 3.4422,9.62231 18.41731,59.73846 33.12204,127.46686 46.37085,198.05904 5.81326,30.95747 11.21054,62.85997 15.76547,95.62162 2.31906,16.66721 2.61025,36.11226 3.31741,54.4691 0.47837,12.42881 0.0936,25.17264 0.0936,39.89246 -6.15644,-25.54492 -7.12358,-55.84371 -11.47052,-82.76325 z"
   id="path3-2-9-3"
   style="display:inline;stroke-width:1.72574" /><path
   d="M 192.66179,570.68396 C 185.402,542.3293 179.0006,513.8042 170.88238,487.1538 156.16657,438.77405 140.43292,391.50208 125.15299,343.74012 c -0.56411,-1.78948 -0.932,-3.79199 -1.38574,-5.70929 0.35564,-0.53257 0.71127,-1.06516 1.0669,-1.59775 1.36121,2.38598 2.80827,4.60152 4.05912,7.15791 21.71808,44.43864 39.05822,94.82091 54.6815,147.33349 6.85512,23.02885 13.21971,46.7607 18.59098,71.13165 2.7347,12.39852 3.07806,26.86344 3.91196,40.51885 0.56412,9.24563 0.11038,18.72559 0.11038,29.67547 -7.25982,-19.00253 -8.40029,-41.5414 -13.5263,-61.56649 z"
   id="path3-2-9-3-6"
   style="display:inline;stroke-width:1.61631" /><path
   d="m 160.71944,591.7461 c -5.84117,-21.1649 -10.9917,-42.45701 -17.52357,-62.34979 -11.84024,-36.11232 -24.49943,-71.39776 -36.79355,-107.04893 -0.45389,-1.33573 -0.74989,-2.83047 -1.11496,-4.26161 0.28614,-0.39753 0.57228,-0.79507 0.85841,-1.19262 1.09523,1.78098 2.25952,3.43474 3.26594,5.34292 17.47424,33.17054 31.42599,70.77759 43.99638,109.97481 5.51558,17.18952 10.63649,34.90378 14.95818,53.09512 2.20032,9.25468 2.47658,20.0518 3.14754,30.24465 0.45388,6.90127 0.0888,13.97743 0.0888,22.1508 -5.84121,-14.18414 -6.75882,-31.00793 -10.88318,-45.95535 z"
   id="path3-2-9-3-6-6"
   style="display:inline;stroke-width:1.25259" />

<path
   d="m 88.56,522.90302 c -0.32,0.5526 -0.78,0.921 -1.42,1.41987 -2.25,-1.69616 -4.33,-3.5228 -6.41,-5.34944 0.23,-0.19955 0.46,-0.3991 0.69,-0.59865 2.34,1.44289 4.67,2.89346 7.14,4.52822 z"
   id="path4"
   style="display:inline;stroke-width:0.876067" />

<path
   d="m 275.32835,547.82334 c -6.15643,-38.11693 -11.58492,-76.46294 -18.46931,-112.28882 -12.47926,-65.03646 -25.82166,-128.58374 -38.7793,-192.78969 -0.47837,-2.40557 -0.79035,-5.09753 -1.17514,-7.67494 0.30159,-0.71594 0.60317,-1.43188 0.90475,-2.14783 1.15433,3.20745 2.38146,6.18578 3.4422,9.62231 18.41731,59.73845 33.12204,127.46686 46.37085,198.05903 5.81326,30.95747 11.21054,62.85997 15.76547,95.62162 2.31906,16.66721 2.61025,36.11226 3.31741,54.4691 0.47837,12.42882 0.0936,25.17264 0.0936,39.89247 -6.15644,-25.54493 -7.12358,-55.84372 -11.47052,-82.76325 z"
   id="path3-2-9-6"
   style="display:inline;stroke-width:1.72574" /><path
   d="M 258.62032,557.51276 C 250.73003,517.0872 243.7727,476.41867 234.94943,438.4229 218.95559,369.44737 201.85552,302.0512 185.24856,233.95646 c -0.6131,-2.55127 -1.01294,-5.40627 -1.50609,-8.13979 0.38653,-0.7593 0.77304,-1.51861 1.15956,-2.27791 1.47943,3.4017 3.05216,6.56043 4.41164,10.2051 23.60425,63.35666 42.45033,135.18718 59.43045,210.05495 7.45047,32.83246 14.3678,66.66722 20.20556,101.41316 2.97218,17.67668 3.34538,38.29948 4.2517,57.76814 0.6131,13.1816 0.11996,26.69728 0.11996,42.30864 -7.8903,-27.0921 -9.12982,-59.22601 -14.701,-87.77599 z"
   id="path3-2-9-8"
   style="display:inline;stroke-width:2.012" /><path
   d="M 166.22712,573.36138 C 158.73089,543.8194 152.12101,514.09987 143.7384,486.33354 128.54332,435.92797 112.29727,386.67657 96.519697,336.91467 c -0.582464,-1.86441 -0.962351,-3.95077 -1.430869,-5.94836 0.367224,-0.55487 0.734435,-1.10975 1.101647,-1.66464 1.405542,2.48588 2.899728,4.79419 4.191315,7.45762 22.42539,46.29944 40.33026,98.79136 56.46235,153.50283 7.07838,23.99313 13.65025,48.7187 19.19645,74.11015 2.82375,12.91768 3.17831,27.9883 4.03937,42.2155 0.58247,9.63277 0.11397,19.50969 0.11397,30.91807 -7.49624,-19.79822 -8.67386,-43.28086 -13.96681,-64.14446 z"
   id="path3-2-9-38"
   style="display:inline;stroke-width:1.67646" /><path
   d="M 142.1848,590.66445 C 132.79708,565.1461 124.51938,539.47439 114.02163,515.48984 94.992468,471.94954 74.64712,429.4062 54.888502,386.42189 c -0.729448,-1.61047 -1.205175,-3.41267 -1.791912,-5.13819 0.459884,-0.4793 0.919752,-0.9586 1.37962,-1.43792 1.760195,2.14731 3.6314,4.14122 5.248883,6.44189 28.083867,39.99344 50.506567,85.33594 70.709187,132.59567 8.86442,20.72526 17.09454,42.0832 24.04018,64.01633 3.53625,11.15828 3.98027,24.17627 5.0586,36.46572 0.72944,8.32079 0.14272,16.85246 0.14272,26.70702 -9.38772,-17.1017 -10.86248,-37.38599 -17.49097,-55.40796 z"
   id="path3-2-9-0"
   style="display:inline;stroke-width:1.74364" /><path
   d="m 327.62835,560.71741 c 3.30098,-37.58924 6.21165,-75.40438 9.90296,-110.7343 6.69118,-64.13609 13.84517,-126.80362 20.79286,-190.12071 0.25649,-2.37226 0.42377,-5.02697 0.63008,-7.56868 -0.1617,-0.70604 -0.32341,-1.41207 -0.48511,-2.1181 -0.61893,3.16304 -1.2769,6.10013 -1.84565,9.48909 -9.87507,58.91144 -17.75952,125.70221 -24.86333,195.31712 -3.11698,30.52888 -6.01091,61.98974 -8.45319,94.29783 -1.24344,16.43647 -1.39958,35.61234 -1.77874,53.71504 -0.2565,12.25675 -0.0502,24.82414 -0.0502,39.34018 3.30098,-25.19127 3.81955,-55.07061 6.15031,-81.61747 z"
   id="path3-2-9-03"
   style="display:inline;stroke-width:1.25489" /><path
   d="m 441.07564,499.1668 c 15.14,-13.92236 31.89,-26.3788 49.48,-38.15983 6.59,-4.4131 13.93,-8.17383 20.96,-12.1955 0.59,-0.3377 1.42,-0.44514 2.35,-0.46817 -50.82,40.61582 -93.92,85.07678 -120.35,138.04158 15.09,-14.95847 32.24,-28.41265 51.27,-40.43161 18.91,-11.9499 38.79,-22.86367 60.58,-31.72056 -4.02,2.44832 -8.15,4.81219 -12.06,7.36795 -12.21,7.97427 -24.87,15.60317 -36.37,24.13771 -14.78,10.95982 -28.52,22.71784 -42.85,34.02304 -14.25,11.24379 -25.41,24.12235 -34.52,38.014 -3.3,5.02709 -5.06,10.64515 -7.6,16.15576 -3.6,0 -7.74,0 -12.98,0 1.35,-6.22437 2.08,-12.27991 4.01,-18.1052 7.74,-23.27811 19.85,-45.26683 34.46,-66.51875 12.24,-17.8289 27.01,-34.32236 43.62,-50.14042 z"
   id="path6"
   style="stroke-width:0.876067" /><g
   id="g38"
   transform="matrix(1,0,0,0.90466101,-64.551338,30.593855)"
   inkscape:label="stem and plant"
   style="display:inline"><path
     d="m 532.19,104.57 c 9.84,-5.39 19.34,-10.9 30.37,-13.45 -5.53,5.19 -11.11,10.32 -16.57,15.58 -9.34,9 -18.6,18.06 -27.89,27.12 -14.42,14.07 -26.25,30.28 -38.83,45.89 -18.63,23.1 -33.48,48.58 -47.81,74.35 -11.53,20.74 -22.41,41.84 -33.2,62.97 -5.35,10.48 -9.82,21.4 -14.71,32.1 -13.58,29.72 -24.79,60.35 -34.31,91.54 -4.61,15.1 -7.66,30.66 -11.28,45.46 0.02,0.16 -0.13,-0.4 -0.1,-0.96 1.21,-22.74 1.81,-45.53 3.85,-68.19 1.9,-21.09 7.25,-41.62 12.85,-62.06 10.42,-38.04 25.62,-74.11 45.07,-108.38 8.25,-14.54 17.2,-28.74 26.71,-42.51 9.56,-13.84 19.82,-27.24 32.07,-38.98 10.29,-9.86 20.21,-20.13 30.79,-29.67 13.08,-11.79 27.33,-22.07 42.99,-30.81 z"
     id="path2-5" /><path
     d="m 288.31,221 c 3.3,8.83 6.87,17.27 9.77,25.94 6.28,18.77 11.55,37.85 14.5,57.44 2.84,18.87 4.58,37.87 4.5,56.98 -0.02,3.99 0,7.99 0,12.78 -0.69,-2.35 -1.13,-4.15 -1.74,-5.89 -7.36,-21.01 -14.6,-42.07 -22.17,-63 -9.62,-26.59 -19.32,-53.14 -29.33,-79.58 -12.44,-32.82 -25.71,-65.3 -42.67,-96.16 -10.27,-18.7 -22.99,-35.75 -35.96,-52.64 -0.35,-0.46 -0.63,-0.97 -1.51,-2.35 1.63,0.82 2.42,1.13 3.12,1.59 12.01,7.89 22.39,17.56 31.94,28.25 22.88,25.58 40.7,54.51 57.37,84.22 5.66,10.07 9.86,20.76 12.18,32.42 z"
     id="path5" /><path
     d="m 335.35,201.23 c -1.03,4.16 -2.55,8.28 -3.01,12.5 -1.28,11.77 -2.62,23.58 -3.02,35.4 -0.52,15.53 -0.34,31.09 -0.16,46.64 0.52,44.65 1.08,89.3 1.83,133.95 0.44,26 1.25,51.99 1.93,77.99 0.49,18.87 0.92,37.74 1.6,56.6 1.05,28.82 2.26,57.63 3.49,86.44 0.28,6.63 0.95,13.24 1.46,20.22 -4.42,0 -8.5,0 -12.84,0 -0.31,-7.03 -0.73,-13.99 -0.9,-20.97 -1.09,-44.04 -2.25,-88.08 -3.15,-132.12 -0.62,-30.39 -0.93,-60.79 -1.25,-91.19 -0.29,-27.79 -0.75,-55.58 -0.5,-83.36 0.24,-26.36 0.79,-52.73 2.17,-79.05 1.09,-20.8 3.65,-41.53 5.6,-62.29 0.12,-1.25 0.61,-2.46 0.95,-3.77 1.86,0.99 3.6,1.92 5.58,2.94 0.26,0.1 0.22,0.07 0.22,0.07 z"
     id="path9" /><path
     d="m 355.83,131.8 c -0.28,5.54 -0.26,10.77 -0.99,15.91 -0.3,2.11 -1.92,4.27 -3.46,5.95 -6.81,7.46 -13.82,14.75 -20.73,22.13 -1.34,1.43 -2.54,2.99 -4.44,5.25 0.42,-9.38 0.61,-17.87 1.21,-26.33 1.22,-17.39 2.53,-34.77 4.05,-52.13 1.34,-15.34 2.71,-30.69 4.65,-45.96 1.87,-14.75 4.45,-29.42 6.82,-44.1 0.34,-2.11 1.24,-4.13 1.88,-6.2 0.44,-0.05 0.88,-0.11 1.32,-0.16 1.07,3.3 2.63,6.54 3.12,9.92 1.91,13.2 4.23,26.41 5.02,39.7 1.25,20.93 1.44,41.92 1.97,62.89 0.11,4.25 -0.27,8.53 -0.42,13.13 z"
     id="path11" /><path
     d="m 290.48,108.49 c 0.4,-3.78 1.95,-6.04 6.58,-5.87 0.85,1.88 2.09,3.87 2.69,6.04 6.49,23.39 13.22,46.73 19.09,70.28 1.69,6.77 0.86,14.16 1.03,21.27 0.02,0.97 -0.83,1.96 -1.27,2.95 -0.33,-0.07 -0.67,-0.14 -1,-0.2 0,-4.23 0,-8.47 0,-12.72 -1.09,0.3 -2.33,0.65 -4.48,1.24 -1.08,-3.97 -2.18,-7.61 -3.06,-11.3 -3.31,-13.91 -6.21,-27.92 -9.93,-41.71 -2.37,-8.79 -5.94,-17.27 -8.92,-25.9 -0.4,-1.22 -0.49,-2.53 -0.73,-4.08 z"
     id="path16"
     style="display:inline" /><path
     d="m 291.97,221.54 c -2.04,-7.23 -4.05,-14.18 -6.16,-21.47 2.99,4.01 5.58,8.07 8.76,11.63 6.4,7.17 13.25,13.94 19.62,21.14 2.36,2.67 4.24,5.91 5.68,9.17 1.16,2.64 0.43,5.44 -2.43,7.04 -2.92,1.64 -6.22,2.21 -8.55,-0.42 -4.03,-4.54 -7.87,-9.32 -11.15,-14.42 -2.45,-3.78 -3.87,-8.23 -5.77,-12.67 z"
     id="path18"
     style="display:inline" /><path
     d="m 358.77,212.42 c -2.55,2.58 -4.7,5.45 -7.57,7.05 -1.74,0.97 -4.87,0.58 -6.87,-0.31 -2.43,-1.08 -2.78,-3.8 -1.46,-6.17 2.32,-4.15 4.52,-8.43 7.35,-12.23 7.62,-10.22 15.54,-20.21 23.36,-30.29 0.34,-0.44 0.84,-0.75 1.84,-0.84 -0.79,2.38 -1.5,4.79 -2.38,7.13 -4.05,10.71 -8.12,21.4 -12.25,32.08 -0.45,1.19 -1.27,2.23 -2.02,3.58 z"
     id="path19"
     style="display:inline" /><path
     d="m 315.68,210.24 c -0.5,1.21 -0.96,2.15 -1.28,2.81 -5.8,3.36 -10.92,0.83 -12.98,-5.11 -2.46,-7.05 -4.19,-14.35 -6.1,-21.58 -1.32,-4.99 -2.24,-10.09 -3.64,-15.06 -1.39,-4.93 -3.16,-9.75 -4.03,-15.01 2.76,4.89 5.43,9.84 8.31,14.67 5.72,9.6 11.64,19.08 17.3,28.72 1.82,3.1 3.78,6.36 2.42,10.56 z"
     id="path20"
     style="display:inline" /><path
     d="m 324.64,188.51 c 6.95,-7.59 13.98,-15.11 20.83,-22.78 8.93,-10 17.59,-20.23 26.64,-30.12 5.03,-5.5 10.6,-10.5 16.09,-15.6 -18.82,23.77 -35.11,49.53 -57.11,70.29 -1.86,-0.46 -3.89,-0.96 -6.17,-1.61 -0.26,-0.15 -0.28,-0.18 -0.28,-0.18 z"
     id="path22"
     style="display:inline" /><path
     d="m 365.24,210.38 c 0.84,-1.08 1.56,-1.94 2.28,-2.81 -5.09,12.01 -7.3,25.26 -16.08,35.46 -1.95,2.27 -4.38,4.43 -7.04,5.69 -1.61,0.76 -4.42,0.27 -6.11,-0.68 -2.09,-1.18 -2.92,-3.5 -2.09,-6.2 1.98,-6.45 6.79,-10.74 11.43,-15.13 5.75,-5.46 11.65,-10.75 17.61,-16.33 z"
     id="path23"
     style="display:inline" /><path
     d="m 294.94,141 c 6.31,13.14 10.52,26.6 12.15,40.81 -0.29,0.13 -0.58,0.25 -0.87,0.38 -3.07,-6.7 -6.5,-13.27 -9.14,-20.13 -7.58,-19.73 -16.11,-38.98 -27.37,-56.96 -0.39,-0.62 -0.51,-1.42 -0.34,-2.36 10.22,11.54 18.43,24.38 25.57,38.26 z"
     id="path27"
     style="display:inline" /><path
     d="m 335.41,201.27 c -2.51,-2.91 -2.51,-6.2 -0.32,-9.01 4.04,-5.19 8.49,-10.07 12.78,-15.07 1.74,-2.02 3.5,-4.02 5.94,-5.7 -0.52,2.45 -0.88,4.95 -1.6,7.34 -1.81,6.02 -3.44,12.12 -5.8,17.93 -2.16,5.31 -4.95,6.12 -10.82,4.38 -0.24,0.09 -0.2,0.12 -0.18,0.13 z"
     id="path30"
     style="display:inline" /><path
     d="m 324.65,188.53 c 3.53,8.69 -0.77,16.99 -1.47,25.47 -0.61,7.38 -1.91,14.69 -2.89,21.89 -6.21,-6.23 -5.3,-3.64 -3.46,-13.97 1.97,-11.05 5.07,-21.89 7.75,-33.12 0.06,-0.29 0.08,-0.26 0.07,-0.27 z"
     id="path32"
     style="display:inline" /></g></g>

</g>

</svg>
