<?xml version="1.0" encoding="UTF-8" standalone="no"?>
<!-- Uploaded to: SVG Repo, www.svgrepo.com, Generator: SVG Repo Mixer Tools -->

<svg
   version="1.1"
   id="Layer_1"
   viewBox="0 0 496.2 496.2"
   xml:space="preserve"
   sodipodi:docname="television-svgrepo-com.svg"
   inkscape:version="1.4.2 (ebf0e940, 2025-05-08)"
   xmlns:inkscape="http://www.inkscape.org/namespaces/inkscape"
   xmlns:sodipodi="http://sodipodi.sourceforge.net/DTD/sodipodi-0.dtd"
   xmlns="http://www.w3.org/2000/svg"
   xmlns:svg="http://www.w3.org/2000/svg"><defs
   id="defs18" /><sodipodi:namedview
   id="namedview18"
   pagecolor="#ffffff"
   bordercolor="#000000"
   borderopacity="0.25"
   inkscape:showpageshadow="2"
   inkscape:pageopacity="0.0"
   inkscape:pagecheckerboard="0"
   inkscape:deskcolor="#d1d1d1"
   inkscape:zoom="0.63392205"
   inkscape:cx="251.60822"
   inkscape:cy="275.27044"
   inkscape:window-width="1472"
   inkscape:window-height="894"
   inkscape:window-x="0"
   inkscape:window-y="34"
   inkscape:window-maximized="0"
   inkscape:current-layer="Layer_1" />
<path
   style="display:none;fill:#fabc3d"
   d="M 496.2,248.1 C 496.2,111.1 385.1,0 248.1,0 111.1,0 0,111.1 0,248.1 c 0,137 111.1,248.1 248.1,248.1 137,0 248.1,-111.1 248.1,-248.1 z"
   id="path1"
   sodipodi:nodetypes="sssss" />
<path
   style="fill:#774518;"
   d="M415.7,377.4c0,5.4-4.4,9.7-9.7,9.7H90.2c-5.4,0-9.7-4.4-9.7-9.7V178.1c0-5.4,4.4-9.7,9.7-9.7H406  c5.4,0,9.7,4.4,9.7,9.7V377.4z"
   id="path2" />
<rect
   x="362.1"
   y="286.3"
   style="fill:#60320D;"
   width="44.9"
   height="81.9"
   id="rect2" />
<g
   id="g10">
	<path
   style="fill:#774518;"
   d="M401,296.2h-33.1c-1.6,0-2.9-1.3-2.9-2.9s1.3-2.9,2.9-2.9H401c1.6,0,2.9,1.3,2.9,2.9   S402.6,296.2,401,296.2z"
   id="path3" />
	<path
   style="fill:#774518;"
   d="M401,306.1h-33.1c-1.6,0-2.9-1.3-2.9-2.9s1.3-2.9,2.9-2.9H401c1.6,0,2.9,1.3,2.9,2.9   C404,304.7,402.6,306.1,401,306.1z"
   id="path4" />
	<path
   style="fill:#774518;"
   d="M401,315.7h-33.1c-1.6,0-2.9-1.3-2.9-2.9s1.3-2.9,2.9-2.9H401c1.6,0,2.9,1.3,2.9,2.9   S402.6,315.7,401,315.7z"
   id="path5" />
	<path
   style="fill:#774518;"
   d="M401,325.5h-33.1c-1.6,0-2.9-1.3-2.9-2.9s1.3-2.9,2.9-2.9H401c1.6,0,2.9,1.3,2.9,2.9   S402.6,325.5,401,325.5z"
   id="path6" />
	<path
   style="fill:#774518;"
   d="M401,334.9h-33.1c-1.6,0-2.9-1.3-2.9-2.9s1.3-2.9,2.9-2.9H401c1.6,0,2.9,1.3,2.9,2.9   S402.6,334.9,401,334.9z"
   id="path7" />
	<path
   style="fill:#774518;"
   d="M401,344.7h-33.1c-1.6,0-2.9-1.3-2.9-2.9s1.3-2.9,2.9-2.9H401c1.6,0,2.9,1.3,2.9,2.9   C404,343.4,402.6,344.7,401,344.7z"
   id="path8" />
	<path
   style="fill:#774518;"
   d="M401,354.4h-33.1c-1.6,0-2.9-1.3-2.9-2.9s1.3-2.9,2.9-2.9H401c1.6,0,2.9,1.3,2.9,2.9   C404,353.1,402.6,354.4,401,354.4z"
   id="path9" />
	<path
   style="fill:#774518;"
   d="M401,364.2h-33.1c-1.6,0-2.9-1.3-2.9-2.9s1.3-2.9,2.9-2.9H401c1.6,0,2.9,1.3,2.9,2.9   C404,362.9,402.6,364.2,401,364.2z"
   id="path10" />
</g>
<path
   style="fill:#262625;"
   d="M104.5,201.2c0-7.8,6.3-14.1,14.1-14.1h222.7c7.8,0,14.1,6.3,14.1,14.1v152.9  c0,7.8-6.3,14.1-14.1,14.1H118.6c-7.8,0-14.1-6.3-14.1-14.1V201.2z"
   id="path11" />
<path
   style="fill:#3A3A38;"
   d="M112.4,207.7c0-7.1,5.8-12.9,12.9-12.9h208.6c7.1,0,12.9,5.8,12.9,12.9v140.1  c0,7.1-5.8,12.9-12.9,12.9H125.3c-7.1,0-12.9-5.8-12.9-12.9C112.4,347.8,112.4,207.7,112.4,207.7z"
   id="path12" />
<path
   style="fill:#D8D8D7;"
   d="M118.2,206.9c0-4.4,3.6-8,8-8h32.3c-13.7,7-31.5,12-40.3,53.6C118.2,252.5,118.2,206.9,118.2,206.9z"
   id="path13" />
<circle
   style="fill:#B79251;"
   cx="384.9"
   cy="208.3"
   r="18.8"
   id="circle13" />
<circle
   style="fill:#3A3A38;"
   cx="384.9"
   cy="208.3"
   r="12.5"
   id="circle14" />
<g
   id="g15">
	<path
   style="fill:#B79251;"
   d="M391.6,210.7l-9-9c-0.6-0.6-1.5-0.6-2.1,0l-2.2,2.2c-0.3,0.3-0.4,0.7-0.4,1.1c0,0.4,0.2,0.8,0.4,1.1   l9,9c0.3,0.3,0.7,0.4,1.1,0.4s0.8-0.1,1.1-0.4l2.2-2.2c0.3-0.3,0.4-0.7,0.4-1.1S391.9,211,391.6,210.7z"
   id="path14" />
	<circle
   style="fill:#B79251;"
   cx="384.9"
   cy="255.4"
   r="18.8"
   id="circle15" />
</g>
<circle
   style="display:inline;fill:#3a3a38"
   cx="384.89999"
   cy="255.39999"
   r="12.5"
   id="circle16" />
<path
   style="display:inline;fill:#b79251"
   d="m 382.6,262.1 9,-9 c 0.6,-0.6 0.6,-1.5 0,-2.1 l -2.2,-2.2 c -0.3,-0.3 -0.7,-0.4 -1.1,-0.4 -0.4,0 -0.8,0.2 -1.1,0.4 l -9,9 c -0.3,0.3 -0.4,0.7 -0.4,1.1 0,0.4 0.1,0.8 0.4,1.1 l 2.2,2.2 c 0.3,0.3 0.7,0.4 1.1,0.4 0.4,-0.1 0.8,-0.2 1.1,-0.5 z"
   id="path16" />
<g
   id="g18"
   style="display:inline">
	<path
   style="fill:#3a3a38"
   d="M 309.9,78.2 C 309,77.5 307.7,77.7 307,78.6 L 246.2,158.7 185,78.6 c -0.7,-0.9 -2,-1.1 -2.9,-0.4 -0.9,0.7 -1.1,2 -0.4,2.9 l 62,84 c 0.6,0.8 1.5,1.2 2.3,1.2 0.1,0 0.2,0 0.2,0 0.1,0 0.2,0 0.2,0 0.9,0 1.8,-0.4 2.3,-1.2 l 61.6,-84 c 0.7,-0.9 0.6,-2.2 -0.4,-2.9 z"
   id="path17" />
	<circle
   style="fill:#3a3a38"
   cx="308.70001"
   cy="78.599998"
   r="5.5"
   id="circle17" />
	<circle
   style="fill:#3a3a38"
   cx="182.39999"
   cy="78.599998"
   r="5.5"
   id="circle18" />
</g>
<ellipse
   style="display:inline;fill:#774518"
   cx="248.10001"
   cy="170.5"
   rx="26.1"
   ry="12"
   id="ellipse18" />
</svg>
